<mxfile host="Electron" modified="2024-05-20T15:26:32.062Z" agent="Mozilla/5.0 (Windows NT 10.0; Win64; x64) AppleWebKit/537.36 (KHTML, like Gecko) draw.io/24.4.0 Chrome/120.0.6099.109 Electron/28.1.0 Safari/537.36" etag="hDkG2O_IS7N6nLCt77Q2" version="24.4.0" type="device" pages="3">
  <diagram id="mgSQSgrMHhVzUuzX50WM" name="Entidad Relacion">
    <mxGraphModel dx="1531" dy="1031" grid="1" gridSize="10" guides="1" tooltips="1" connect="1" arrows="1" fold="1" page="1" pageScale="1" pageWidth="827" pageHeight="1169" math="0" shadow="0">
      <root>
        <mxCell id="0" />
        <mxCell id="1" parent="0" />
        <mxCell id="dCW9297O5qJF-ojRRb4r-17" style="rounded=0;orthogonalLoop=1;jettySize=auto;html=1;exitX=0;exitY=0;exitDx=0;exitDy=0;entryX=1;entryY=0.5;entryDx=0;entryDy=0;elbow=vertical;curved=1;" parent="1" source="dCW9297O5qJF-ojRRb4r-1" target="dCW9297O5qJF-ojRRb4r-15" edge="1">
          <mxGeometry relative="1" as="geometry">
            <Array as="points">
              <mxPoint x="350" y="420" />
            </Array>
          </mxGeometry>
        </mxCell>
        <mxCell id="Hu--qqsxAzfkZEmvc5kn-1" style="edgeStyle=orthogonalEdgeStyle;rounded=0;orthogonalLoop=1;jettySize=auto;html=1;exitX=0.5;exitY=0;exitDx=0;exitDy=0;entryX=0.5;entryY=1;entryDx=0;entryDy=0;curved=1;" parent="1" source="dCW9297O5qJF-ojRRb4r-1" target="dCW9297O5qJF-ojRRb4r-14" edge="1">
          <mxGeometry relative="1" as="geometry" />
        </mxCell>
        <mxCell id="Hu--qqsxAzfkZEmvc5kn-7" style="edgeStyle=orthogonalEdgeStyle;curved=1;rounded=0;orthogonalLoop=1;jettySize=auto;html=1;entryX=0;entryY=0.5;entryDx=0;entryDy=0;strokeColor=default;align=center;verticalAlign=middle;fontFamily=Helvetica;fontSize=11;fontColor=default;labelBackgroundColor=default;endArrow=blockThin;endFill=1;" parent="1" source="dCW9297O5qJF-ojRRb4r-1" target="Hu--qqsxAzfkZEmvc5kn-5" edge="1">
          <mxGeometry relative="1" as="geometry" />
        </mxCell>
        <mxCell id="Hu--qqsxAzfkZEmvc5kn-11" style="edgeStyle=orthogonalEdgeStyle;curved=1;rounded=0;orthogonalLoop=1;jettySize=auto;html=1;exitX=0;exitY=0.5;exitDx=0;exitDy=0;strokeColor=default;align=center;verticalAlign=middle;fontFamily=Helvetica;fontSize=11;fontColor=default;labelBackgroundColor=default;endArrow=none;endFill=0;entryX=1;entryY=0.5;entryDx=0;entryDy=0;" parent="1" source="dCW9297O5qJF-ojRRb4r-1" target="Hu--qqsxAzfkZEmvc5kn-10" edge="1">
          <mxGeometry relative="1" as="geometry">
            <mxPoint x="248" y="413" as="targetPoint" />
          </mxGeometry>
        </mxCell>
        <mxCell id="Hu--qqsxAzfkZEmvc5kn-12" style="edgeStyle=orthogonalEdgeStyle;curved=1;rounded=0;orthogonalLoop=1;jettySize=auto;html=1;strokeColor=default;align=center;verticalAlign=middle;fontFamily=Helvetica;fontSize=11;fontColor=default;labelBackgroundColor=default;endArrow=none;endFill=0;exitX=0.427;exitY=0.933;exitDx=0;exitDy=0;exitPerimeter=0;" parent="1" source="dCW9297O5qJF-ojRRb4r-1" target="dCW9297O5qJF-ojRRb4r-12" edge="1">
          <mxGeometry relative="1" as="geometry">
            <mxPoint x="410" y="430" as="sourcePoint" />
            <Array as="points">
              <mxPoint x="448" y="450" />
            </Array>
          </mxGeometry>
        </mxCell>
        <mxCell id="Hu--qqsxAzfkZEmvc5kn-28" style="edgeStyle=orthogonalEdgeStyle;curved=1;rounded=0;orthogonalLoop=1;jettySize=auto;html=1;strokeColor=default;align=center;verticalAlign=middle;fontFamily=Helvetica;fontSize=11;fontColor=default;labelBackgroundColor=default;endArrow=blockThin;endFill=1;" parent="1" source="dCW9297O5qJF-ojRRb4r-1" target="Hu--qqsxAzfkZEmvc5kn-26" edge="1">
          <mxGeometry relative="1" as="geometry" />
        </mxCell>
        <mxCell id="Hu--qqsxAzfkZEmvc5kn-30" style="edgeStyle=orthogonalEdgeStyle;curved=1;rounded=0;orthogonalLoop=1;jettySize=auto;html=1;entryX=0.5;entryY=0;entryDx=0;entryDy=0;strokeColor=default;align=center;verticalAlign=middle;fontFamily=Helvetica;fontSize=11;fontColor=default;labelBackgroundColor=default;endArrow=none;endFill=0;startArrow=classic;startFill=1;" parent="1" source="dCW9297O5qJF-ojRRb4r-1" target="Hu--qqsxAzfkZEmvc5kn-27" edge="1">
          <mxGeometry relative="1" as="geometry" />
        </mxCell>
        <mxCell id="dCW9297O5qJF-ojRRb4r-1" value="INCIDENTE" style="rounded=1;whiteSpace=wrap;html=1;" parent="1" vertex="1">
          <mxGeometry x="410" y="400" width="90" height="30" as="geometry" />
        </mxCell>
        <mxCell id="Hu--qqsxAzfkZEmvc5kn-14" style="edgeStyle=orthogonalEdgeStyle;curved=1;rounded=0;orthogonalLoop=1;jettySize=auto;html=1;strokeColor=default;align=center;verticalAlign=middle;fontFamily=Helvetica;fontSize=11;fontColor=default;labelBackgroundColor=default;endArrow=none;endFill=0;exitX=0.25;exitY=0;exitDx=0;exitDy=0;" parent="1" source="dCW9297O5qJF-ojRRb4r-3" target="dCW9297O5qJF-ojRRb4r-13" edge="1">
          <mxGeometry relative="1" as="geometry" />
        </mxCell>
        <mxCell id="Hu--qqsxAzfkZEmvc5kn-85" style="edgeStyle=orthogonalEdgeStyle;curved=1;rounded=0;orthogonalLoop=1;jettySize=auto;html=1;strokeColor=default;align=center;verticalAlign=middle;fontFamily=Helvetica;fontSize=11;fontColor=default;labelBackgroundColor=default;endArrow=none;endFill=0;startArrow=block;startFill=1;" parent="1" source="dCW9297O5qJF-ojRRb4r-3" target="Hu--qqsxAzfkZEmvc5kn-65" edge="1">
          <mxGeometry relative="1" as="geometry" />
        </mxCell>
        <mxCell id="dCW9297O5qJF-ojRRb4r-3" value="ACTIVO" style="rounded=1;whiteSpace=wrap;html=1;" parent="1" vertex="1">
          <mxGeometry x="870" y="400" width="90" height="30" as="geometry" />
        </mxCell>
        <mxCell id="Hu--qqsxAzfkZEmvc5kn-119" style="edgeStyle=orthogonalEdgeStyle;curved=1;rounded=0;orthogonalLoop=1;jettySize=auto;html=1;strokeColor=default;align=center;verticalAlign=middle;fontFamily=Helvetica;fontSize=11;fontColor=default;labelBackgroundColor=default;endArrow=none;endFill=0;entryX=1;entryY=0.5;entryDx=0;entryDy=0;" parent="1" source="dCW9297O5qJF-ojRRb4r-4" target="Hu--qqsxAzfkZEmvc5kn-120" edge="1">
          <mxGeometry relative="1" as="geometry">
            <mxPoint x="240" y="790" as="targetPoint" />
          </mxGeometry>
        </mxCell>
        <mxCell id="Hu--qqsxAzfkZEmvc5kn-126" style="edgeStyle=orthogonalEdgeStyle;curved=1;rounded=0;orthogonalLoop=1;jettySize=auto;html=1;entryX=1;entryY=0;entryDx=0;entryDy=0;strokeColor=default;align=center;verticalAlign=middle;fontFamily=Helvetica;fontSize=11;fontColor=default;labelBackgroundColor=default;endArrow=none;endFill=0;" parent="1" source="dCW9297O5qJF-ojRRb4r-4" target="Hu--qqsxAzfkZEmvc5kn-124" edge="1">
          <mxGeometry relative="1" as="geometry" />
        </mxCell>
        <mxCell id="Hu--qqsxAzfkZEmvc5kn-131" style="edgeStyle=orthogonalEdgeStyle;curved=1;rounded=0;orthogonalLoop=1;jettySize=auto;html=1;strokeColor=default;align=center;verticalAlign=middle;fontFamily=Helvetica;fontSize=11;fontColor=default;labelBackgroundColor=default;endArrow=none;endFill=0;" parent="1" source="dCW9297O5qJF-ojRRb4r-4" target="Hu--qqsxAzfkZEmvc5kn-129" edge="1">
          <mxGeometry relative="1" as="geometry" />
        </mxCell>
        <mxCell id="Hu--qqsxAzfkZEmvc5kn-132" style="edgeStyle=orthogonalEdgeStyle;curved=1;rounded=0;orthogonalLoop=1;jettySize=auto;html=1;strokeColor=default;align=center;verticalAlign=middle;fontFamily=Helvetica;fontSize=11;fontColor=default;labelBackgroundColor=default;endArrow=none;endFill=0;" parent="1" source="dCW9297O5qJF-ojRRb4r-4" target="Hu--qqsxAzfkZEmvc5kn-130" edge="1">
          <mxGeometry relative="1" as="geometry" />
        </mxCell>
        <mxCell id="dCW9297O5qJF-ojRRb4r-4" value="USUARIO" style="rounded=1;whiteSpace=wrap;html=1;" parent="1" vertex="1">
          <mxGeometry x="295" y="720" width="90" height="30" as="geometry" />
        </mxCell>
        <mxCell id="dCW9297O5qJF-ojRRb4r-5" value="VULNERABILIDAD" style="rounded=1;whiteSpace=wrap;html=1;" parent="1" vertex="1">
          <mxGeometry x="1160" y="530" width="130" height="30" as="geometry" />
        </mxCell>
        <mxCell id="Hu--qqsxAzfkZEmvc5kn-136" style="edgeStyle=orthogonalEdgeStyle;curved=1;rounded=0;orthogonalLoop=1;jettySize=auto;html=1;entryX=1;entryY=0.5;entryDx=0;entryDy=0;strokeColor=default;align=center;verticalAlign=middle;fontFamily=Helvetica;fontSize=11;fontColor=default;labelBackgroundColor=default;endArrow=blockThin;endFill=1;" parent="1" source="dCW9297O5qJF-ojRRb4r-6" target="Hu--qqsxAzfkZEmvc5kn-134" edge="1">
          <mxGeometry relative="1" as="geometry" />
        </mxCell>
        <mxCell id="Hu--qqsxAzfkZEmvc5kn-138" style="edgeStyle=orthogonalEdgeStyle;curved=1;rounded=0;orthogonalLoop=1;jettySize=auto;html=1;entryX=0;entryY=0.5;entryDx=0;entryDy=0;strokeColor=default;align=center;verticalAlign=middle;fontFamily=Helvetica;fontSize=11;fontColor=default;labelBackgroundColor=default;endArrow=none;endFill=0;startArrow=blockThin;startFill=1;" parent="1" source="dCW9297O5qJF-ojRRb4r-6" target="Hu--qqsxAzfkZEmvc5kn-135" edge="1">
          <mxGeometry relative="1" as="geometry" />
        </mxCell>
        <mxCell id="Hu--qqsxAzfkZEmvc5kn-153" style="edgeStyle=orthogonalEdgeStyle;curved=1;rounded=0;orthogonalLoop=1;jettySize=auto;html=1;strokeColor=default;align=center;verticalAlign=middle;fontFamily=Helvetica;fontSize=11;fontColor=default;labelBackgroundColor=default;endArrow=none;endFill=0;" parent="1" source="dCW9297O5qJF-ojRRb4r-6" target="Hu--qqsxAzfkZEmvc5kn-150" edge="1">
          <mxGeometry relative="1" as="geometry" />
        </mxCell>
        <mxCell id="Hu--qqsxAzfkZEmvc5kn-157" style="edgeStyle=orthogonalEdgeStyle;curved=1;rounded=0;orthogonalLoop=1;jettySize=auto;html=1;strokeColor=default;align=center;verticalAlign=middle;fontFamily=Helvetica;fontSize=11;fontColor=default;labelBackgroundColor=default;endArrow=none;endFill=0;" parent="1" source="dCW9297O5qJF-ojRRb4r-6" target="Hu--qqsxAzfkZEmvc5kn-156" edge="1">
          <mxGeometry relative="1" as="geometry" />
        </mxCell>
        <mxCell id="dCW9297O5qJF-ojRRb4r-6" value="EQUIPO_IR" style="rounded=1;whiteSpace=wrap;html=1;" parent="1" vertex="1">
          <mxGeometry x="820" y="886.25" width="90" height="30" as="geometry" />
        </mxCell>
        <mxCell id="Hu--qqsxAzfkZEmvc5kn-145" style="edgeStyle=orthogonalEdgeStyle;curved=1;rounded=0;orthogonalLoop=1;jettySize=auto;html=1;strokeColor=default;align=center;verticalAlign=middle;fontFamily=Helvetica;fontSize=11;fontColor=default;labelBackgroundColor=default;endArrow=none;endFill=0;" parent="1" source="dCW9297O5qJF-ojRRb4r-7" edge="1">
          <mxGeometry relative="1" as="geometry">
            <mxPoint x="1200" y="690" as="targetPoint" />
          </mxGeometry>
        </mxCell>
        <mxCell id="Hu--qqsxAzfkZEmvc5kn-147" style="edgeStyle=orthogonalEdgeStyle;curved=1;rounded=0;orthogonalLoop=1;jettySize=auto;html=1;strokeColor=default;align=center;verticalAlign=middle;fontFamily=Helvetica;fontSize=11;fontColor=default;labelBackgroundColor=default;endArrow=none;endFill=0;entryX=0.262;entryY=0.9;entryDx=0;entryDy=0;entryPerimeter=0;" parent="1" source="dCW9297O5qJF-ojRRb4r-7" target="Hu--qqsxAzfkZEmvc5kn-142" edge="1">
          <mxGeometry relative="1" as="geometry">
            <mxPoint x="1320" y="790" as="targetPoint" />
          </mxGeometry>
        </mxCell>
        <mxCell id="Hu--qqsxAzfkZEmvc5kn-155" style="edgeStyle=orthogonalEdgeStyle;curved=1;rounded=0;orthogonalLoop=1;jettySize=auto;html=1;strokeColor=default;align=center;verticalAlign=middle;fontFamily=Helvetica;fontSize=11;fontColor=default;labelBackgroundColor=default;endArrow=none;endFill=0;entryX=0;entryY=0.5;entryDx=0;entryDy=0;" parent="1" source="dCW9297O5qJF-ojRRb4r-7" target="Hu--qqsxAzfkZEmvc5kn-149" edge="1">
          <mxGeometry relative="1" as="geometry">
            <mxPoint x="1220" y="860" as="targetPoint" />
          </mxGeometry>
        </mxCell>
        <mxCell id="dCW9297O5qJF-ojRRb4r-7" value="PERSONAL_IR" style="rounded=1;whiteSpace=wrap;html=1;" parent="1" vertex="1">
          <mxGeometry x="1060" y="760" width="120" height="30" as="geometry" />
        </mxCell>
        <mxCell id="Hu--qqsxAzfkZEmvc5kn-58" style="edgeStyle=orthogonalEdgeStyle;curved=1;rounded=0;orthogonalLoop=1;jettySize=auto;html=1;strokeColor=default;align=center;verticalAlign=middle;fontFamily=Helvetica;fontSize=11;fontColor=default;labelBackgroundColor=default;endArrow=none;endFill=0;entryX=0;entryY=0.5;entryDx=0;entryDy=0;" parent="1" source="dCW9297O5qJF-ojRRb4r-10" target="Hu--qqsxAzfkZEmvc5kn-60" edge="1">
          <mxGeometry relative="1" as="geometry">
            <mxPoint x="810" y="720" as="targetPoint" />
          </mxGeometry>
        </mxCell>
        <mxCell id="Hu--qqsxAzfkZEmvc5kn-100" style="edgeStyle=orthogonalEdgeStyle;curved=1;rounded=0;orthogonalLoop=1;jettySize=auto;html=1;entryX=0;entryY=0.5;entryDx=0;entryDy=0;strokeColor=default;align=center;verticalAlign=middle;fontFamily=Helvetica;fontSize=11;fontColor=default;labelBackgroundColor=default;endArrow=none;endFill=0;startArrow=blockThin;startFill=1;" parent="1" source="dCW9297O5qJF-ojRRb4r-10" target="Hu--qqsxAzfkZEmvc5kn-94" edge="1">
          <mxGeometry relative="1" as="geometry" />
        </mxCell>
        <mxCell id="LeRdlQffRXMQm99WUG5v-2" style="edgeStyle=orthogonalEdgeStyle;curved=1;rounded=0;orthogonalLoop=1;jettySize=auto;html=1;entryX=0.5;entryY=1;entryDx=0;entryDy=0;strokeColor=default;align=center;verticalAlign=middle;fontFamily=Helvetica;fontSize=11;fontColor=default;labelBackgroundColor=default;endArrow=none;endFill=0;" parent="1" source="dCW9297O5qJF-ojRRb4r-10" target="LeRdlQffRXMQm99WUG5v-1" edge="1">
          <mxGeometry relative="1" as="geometry" />
        </mxCell>
        <mxCell id="dCW9297O5qJF-ojRRb4r-10" value="RESPUESTA_INCIDENTE" style="rounded=1;whiteSpace=wrap;html=1;" parent="1" vertex="1">
          <mxGeometry x="540" y="720" width="160" height="30" as="geometry" />
        </mxCell>
        <mxCell id="dCW9297O5qJF-ojRRb4r-12" value="usuario_id" style="ellipse;whiteSpace=wrap;html=1;" parent="1" vertex="1">
          <mxGeometry x="240" y="430" width="90" height="50" as="geometry" />
        </mxCell>
        <mxCell id="dCW9297O5qJF-ojRRb4r-13" value="activo_id" style="ellipse;whiteSpace=wrap;html=1;" parent="1" vertex="1">
          <mxGeometry x="714" y="305.75" width="86" height="40" as="geometry" />
        </mxCell>
        <mxCell id="dCW9297O5qJF-ojRRb4r-14" value="fecha" style="ellipse;whiteSpace=wrap;html=1;" parent="1" vertex="1">
          <mxGeometry x="350" y="290" width="60" height="40" as="geometry" />
        </mxCell>
        <mxCell id="dCW9297O5qJF-ojRRb4r-15" value="gravedad" style="ellipse;whiteSpace=wrap;html=1;" parent="1" vertex="1">
          <mxGeometry x="240" y="310" width="80" height="40" as="geometry" />
        </mxCell>
        <mxCell id="dCW9297O5qJF-ojRRb4r-16" value="estado" style="ellipse;whiteSpace=wrap;html=1;" parent="1" vertex="1">
          <mxGeometry x="530" y="300" width="70" height="40" as="geometry" />
        </mxCell>
        <mxCell id="Hu--qqsxAzfkZEmvc5kn-3" style="edgeStyle=orthogonalEdgeStyle;curved=1;rounded=0;orthogonalLoop=1;jettySize=auto;html=1;entryX=0;entryY=1;entryDx=0;entryDy=0;strokeColor=default;align=center;verticalAlign=middle;fontFamily=Helvetica;fontSize=11;fontColor=default;labelBackgroundColor=default;endArrow=classic;" parent="1" source="dCW9297O5qJF-ojRRb4r-1" target="dCW9297O5qJF-ojRRb4r-16" edge="1">
          <mxGeometry relative="1" as="geometry" />
        </mxCell>
        <mxCell id="Hu--qqsxAzfkZEmvc5kn-8" style="edgeStyle=orthogonalEdgeStyle;curved=1;rounded=0;orthogonalLoop=1;jettySize=auto;html=1;exitX=1;exitY=0.5;exitDx=0;exitDy=0;entryX=0;entryY=0.5;entryDx=0;entryDy=0;strokeColor=default;align=center;verticalAlign=middle;fontFamily=Helvetica;fontSize=11;fontColor=default;labelBackgroundColor=default;endArrow=blockThin;endFill=1;" parent="1" source="Hu--qqsxAzfkZEmvc5kn-5" target="dCW9297O5qJF-ojRRb4r-3" edge="1">
          <mxGeometry relative="1" as="geometry" />
        </mxCell>
        <mxCell id="Hu--qqsxAzfkZEmvc5kn-5" value="AFECTA" style="rhombus;whiteSpace=wrap;html=1;fontFamily=Helvetica;fontSize=11;fontColor=default;labelBackgroundColor=default;" parent="1" vertex="1">
          <mxGeometry x="640" y="383.75" width="100" height="62.5" as="geometry" />
        </mxCell>
        <mxCell id="Hu--qqsxAzfkZEmvc5kn-10" value="incidente_id" style="ellipse;whiteSpace=wrap;html=1;" parent="1" vertex="1">
          <mxGeometry x="180" y="370" width="80" height="50" as="geometry" />
        </mxCell>
        <mxCell id="Hu--qqsxAzfkZEmvc5kn-15" style="edgeStyle=orthogonalEdgeStyle;curved=1;rounded=0;orthogonalLoop=1;jettySize=auto;html=1;strokeColor=default;align=center;verticalAlign=middle;fontFamily=Helvetica;fontSize=11;fontColor=default;labelBackgroundColor=default;endArrow=none;endFill=0;exitX=0.25;exitY=0;exitDx=0;exitDy=0;" parent="1" source="dCW9297O5qJF-ojRRb4r-3" target="Hu--qqsxAzfkZEmvc5kn-16" edge="1">
          <mxGeometry relative="1" as="geometry">
            <mxPoint x="997" y="383.25" as="sourcePoint" />
          </mxGeometry>
        </mxCell>
        <mxCell id="Hu--qqsxAzfkZEmvc5kn-16" value="direccion_ip" style="ellipse;whiteSpace=wrap;html=1;" parent="1" vertex="1">
          <mxGeometry x="810" y="260" width="86" height="40" as="geometry" />
        </mxCell>
        <mxCell id="Hu--qqsxAzfkZEmvc5kn-17" style="edgeStyle=orthogonalEdgeStyle;curved=1;rounded=0;orthogonalLoop=1;jettySize=auto;html=1;strokeColor=default;align=center;verticalAlign=middle;fontFamily=Helvetica;fontSize=11;fontColor=default;labelBackgroundColor=default;endArrow=none;endFill=0;exitX=0.376;exitY=0.19;exitDx=0;exitDy=0;exitPerimeter=0;" parent="1" source="dCW9297O5qJF-ojRRb4r-3" target="Hu--qqsxAzfkZEmvc5kn-18" edge="1">
          <mxGeometry relative="1" as="geometry">
            <mxPoint x="1113" y="369.5" as="sourcePoint" />
          </mxGeometry>
        </mxCell>
        <mxCell id="Hu--qqsxAzfkZEmvc5kn-18" value="direccion_mac" style="ellipse;whiteSpace=wrap;html=1;" parent="1" vertex="1">
          <mxGeometry x="920" y="260" width="86" height="40" as="geometry" />
        </mxCell>
        <mxCell id="Hu--qqsxAzfkZEmvc5kn-22" style="edgeStyle=orthogonalEdgeStyle;curved=1;rounded=0;orthogonalLoop=1;jettySize=auto;html=1;strokeColor=default;align=center;verticalAlign=middle;fontFamily=Helvetica;fontSize=11;fontColor=default;labelBackgroundColor=default;endArrow=none;endFill=0;exitX=0.75;exitY=0;exitDx=0;exitDy=0;" parent="1" source="dCW9297O5qJF-ojRRb4r-3" target="Hu--qqsxAzfkZEmvc5kn-23" edge="1">
          <mxGeometry relative="1" as="geometry">
            <mxPoint x="1183" y="445.75" as="sourcePoint" />
          </mxGeometry>
        </mxCell>
        <mxCell id="Hu--qqsxAzfkZEmvc5kn-23" value="tipo_activo" style="ellipse;whiteSpace=wrap;html=1;" parent="1" vertex="1">
          <mxGeometry x="1020" y="300" width="86" height="40" as="geometry" />
        </mxCell>
        <mxCell id="Hu--qqsxAzfkZEmvc5kn-24" value="" style="edgeStyle=orthogonalEdgeStyle;curved=1;rounded=0;orthogonalLoop=1;jettySize=auto;html=1;strokeColor=default;align=center;verticalAlign=middle;fontFamily=Helvetica;fontSize=11;fontColor=default;labelBackgroundColor=default;endArrow=none;endFill=0;" parent="1" source="dCW9297O5qJF-ojRRb4r-3" target="Hu--qqsxAzfkZEmvc5kn-25" edge="1">
          <mxGeometry relative="1" as="geometry">
            <mxPoint x="1030" y="510" as="sourcePoint" />
          </mxGeometry>
        </mxCell>
        <mxCell id="Hu--qqsxAzfkZEmvc5kn-25" value="nombre_activo" style="ellipse;whiteSpace=wrap;html=1;" parent="1" vertex="1">
          <mxGeometry x="1062" y="370" width="86" height="40" as="geometry" />
        </mxCell>
        <mxCell id="Hu--qqsxAzfkZEmvc5kn-29" style="edgeStyle=orthogonalEdgeStyle;curved=1;rounded=0;orthogonalLoop=1;jettySize=auto;html=1;entryX=0.5;entryY=0;entryDx=0;entryDy=0;strokeColor=default;align=center;verticalAlign=middle;fontFamily=Helvetica;fontSize=11;fontColor=default;labelBackgroundColor=default;endArrow=blockThin;endFill=1;" parent="1" source="Hu--qqsxAzfkZEmvc5kn-26" target="dCW9297O5qJF-ojRRb4r-10" edge="1">
          <mxGeometry relative="1" as="geometry" />
        </mxCell>
        <mxCell id="Hu--qqsxAzfkZEmvc5kn-26" value="TIENE" style="rhombus;whiteSpace=wrap;html=1;fontFamily=Helvetica;fontSize=11;fontColor=default;labelBackgroundColor=default;" parent="1" vertex="1">
          <mxGeometry x="570" y="570" width="100" height="62.5" as="geometry" />
        </mxCell>
        <mxCell id="Hu--qqsxAzfkZEmvc5kn-31" style="edgeStyle=orthogonalEdgeStyle;curved=1;rounded=0;orthogonalLoop=1;jettySize=auto;html=1;entryX=0.5;entryY=0;entryDx=0;entryDy=0;strokeColor=default;align=center;verticalAlign=middle;fontFamily=Helvetica;fontSize=11;fontColor=default;labelBackgroundColor=default;endArrow=none;endFill=0;startArrow=open;startFill=0;" parent="1" source="Hu--qqsxAzfkZEmvc5kn-27" target="dCW9297O5qJF-ojRRb4r-4" edge="1">
          <mxGeometry relative="1" as="geometry" />
        </mxCell>
        <mxCell id="Hu--qqsxAzfkZEmvc5kn-27" value="REPORTA" style="rhombus;whiteSpace=wrap;html=1;fontFamily=Helvetica;fontSize=11;fontColor=default;labelBackgroundColor=default;" parent="1" vertex="1">
          <mxGeometry x="290" y="570" width="100" height="62.5" as="geometry" />
        </mxCell>
        <mxCell id="Hu--qqsxAzfkZEmvc5kn-44" style="edgeStyle=orthogonalEdgeStyle;curved=1;rounded=0;orthogonalLoop=1;jettySize=auto;html=1;strokeColor=default;align=center;verticalAlign=middle;fontFamily=Helvetica;fontSize=11;fontColor=default;labelBackgroundColor=default;endArrow=none;endFill=0;exitX=0;exitY=0.5;exitDx=0;exitDy=0;" parent="1" source="dCW9297O5qJF-ojRRb4r-10" target="Hu--qqsxAzfkZEmvc5kn-45" edge="1">
          <mxGeometry relative="1" as="geometry">
            <mxPoint x="773" y="626" as="sourcePoint" />
          </mxGeometry>
        </mxCell>
        <mxCell id="Hu--qqsxAzfkZEmvc5kn-45" value="respuesta_id" style="ellipse;whiteSpace=wrap;html=1;" parent="1" vertex="1">
          <mxGeometry x="473" y="490" width="86" height="40" as="geometry" />
        </mxCell>
        <mxCell id="Hu--qqsxAzfkZEmvc5kn-46" style="edgeStyle=orthogonalEdgeStyle;curved=1;rounded=0;orthogonalLoop=1;jettySize=auto;html=1;strokeColor=default;align=center;verticalAlign=middle;fontFamily=Helvetica;fontSize=11;fontColor=default;labelBackgroundColor=default;endArrow=none;endFill=0;exitX=1;exitY=0.5;exitDx=0;exitDy=0;" parent="1" source="dCW9297O5qJF-ojRRb4r-10" target="Hu--qqsxAzfkZEmvc5kn-47" edge="1">
          <mxGeometry relative="1" as="geometry">
            <mxPoint x="784" y="632" as="sourcePoint" />
          </mxGeometry>
        </mxCell>
        <mxCell id="Hu--qqsxAzfkZEmvc5kn-47" value="incidente_id" style="ellipse;whiteSpace=wrap;html=1;" parent="1" vertex="1">
          <mxGeometry x="676" y="530" width="86" height="40" as="geometry" />
        </mxCell>
        <mxCell id="Hu--qqsxAzfkZEmvc5kn-55" value="medidas_contencion" style="ellipse;whiteSpace=wrap;html=1;" parent="1" vertex="1">
          <mxGeometry x="448" y="770" width="136" height="40" as="geometry" />
        </mxCell>
        <mxCell id="Hu--qqsxAzfkZEmvc5kn-57" style="edgeStyle=orthogonalEdgeStyle;curved=1;rounded=0;orthogonalLoop=1;jettySize=auto;html=1;strokeColor=default;align=center;verticalAlign=middle;fontFamily=Helvetica;fontSize=11;fontColor=default;labelBackgroundColor=default;endArrow=none;endFill=0;exitX=0.021;exitY=0.785;exitDx=0;exitDy=0;exitPerimeter=0;" parent="1" source="Hu--qqsxAzfkZEmvc5kn-56" target="dCW9297O5qJF-ojRRb4r-1" edge="1">
          <mxGeometry relative="1" as="geometry">
            <Array as="points">
              <mxPoint x="550" y="361" />
              <mxPoint x="550" y="415" />
            </Array>
          </mxGeometry>
        </mxCell>
        <mxCell id="Hu--qqsxAzfkZEmvc5kn-56" value="activo_id" style="ellipse;whiteSpace=wrap;html=1;" parent="1" vertex="1">
          <mxGeometry x="600" y="330" width="86" height="40" as="geometry" />
        </mxCell>
        <mxCell id="Hu--qqsxAzfkZEmvc5kn-60" value="nivel_erradicacion" style="ellipse;whiteSpace=wrap;html=1;" parent="1" vertex="1">
          <mxGeometry x="804" y="581.25" width="116" height="48.75" as="geometry" />
        </mxCell>
        <mxCell id="Hu--qqsxAzfkZEmvc5kn-67" style="edgeStyle=orthogonalEdgeStyle;curved=1;rounded=0;orthogonalLoop=1;jettySize=auto;html=1;entryX=0;entryY=0.75;entryDx=0;entryDy=0;strokeColor=default;align=center;verticalAlign=middle;fontFamily=Helvetica;fontSize=11;fontColor=default;labelBackgroundColor=default;endArrow=none;endFill=0;startArrow=blockThin;startFill=1;" parent="1" source="Hu--qqsxAzfkZEmvc5kn-65" target="dCW9297O5qJF-ojRRb4r-5" edge="1">
          <mxGeometry relative="1" as="geometry" />
        </mxCell>
        <mxCell id="Hu--qqsxAzfkZEmvc5kn-65" value="COMPROMETE" style="rhombus;whiteSpace=wrap;html=1;fontFamily=Helvetica;fontSize=11;fontColor=default;labelBackgroundColor=default;" parent="1" vertex="1">
          <mxGeometry x="962" y="521.75" width="100" height="62.5" as="geometry" />
        </mxCell>
        <mxCell id="Hu--qqsxAzfkZEmvc5kn-86" style="edgeStyle=orthogonalEdgeStyle;curved=1;rounded=0;orthogonalLoop=1;jettySize=auto;html=1;strokeColor=default;align=center;verticalAlign=middle;fontFamily=Helvetica;fontSize=11;fontColor=default;labelBackgroundColor=default;endArrow=none;endFill=0;exitX=0.25;exitY=0;exitDx=0;exitDy=0;" parent="1" source="dCW9297O5qJF-ojRRb4r-5" target="Hu--qqsxAzfkZEmvc5kn-87" edge="1">
          <mxGeometry relative="1" as="geometry">
            <mxPoint x="1369" y="464.25" as="sourcePoint" />
          </mxGeometry>
        </mxCell>
        <mxCell id="Hu--qqsxAzfkZEmvc5kn-87" value="activo_id" style="ellipse;whiteSpace=wrap;html=1;" parent="1" vertex="1">
          <mxGeometry x="1210" y="395" width="86" height="40" as="geometry" />
        </mxCell>
        <mxCell id="Hu--qqsxAzfkZEmvc5kn-88" style="edgeStyle=orthogonalEdgeStyle;curved=1;rounded=0;orthogonalLoop=1;jettySize=auto;html=1;strokeColor=default;align=center;verticalAlign=middle;fontFamily=Helvetica;fontSize=11;fontColor=default;labelBackgroundColor=default;endArrow=none;endFill=0;" parent="1" target="Hu--qqsxAzfkZEmvc5kn-89" edge="1">
          <mxGeometry relative="1" as="geometry">
            <mxPoint x="1290" y="550" as="sourcePoint" />
          </mxGeometry>
        </mxCell>
        <mxCell id="Hu--qqsxAzfkZEmvc5kn-89" value="vulnerabilidad_id" style="ellipse;whiteSpace=wrap;html=1;" parent="1" vertex="1">
          <mxGeometry x="1320" y="410" width="130" height="40" as="geometry" />
        </mxCell>
        <mxCell id="Hu--qqsxAzfkZEmvc5kn-116" style="edgeStyle=orthogonalEdgeStyle;curved=1;rounded=0;orthogonalLoop=1;jettySize=auto;html=1;entryX=1;entryY=0.75;entryDx=0;entryDy=0;strokeColor=default;align=center;verticalAlign=middle;fontFamily=Helvetica;fontSize=11;fontColor=default;labelBackgroundColor=default;endArrow=none;endFill=0;" parent="1" source="Hu--qqsxAzfkZEmvc5kn-91" target="dCW9297O5qJF-ojRRb4r-5" edge="1">
          <mxGeometry relative="1" as="geometry">
            <Array as="points">
              <mxPoint x="1345" y="540" />
              <mxPoint x="1345" y="553" />
            </Array>
          </mxGeometry>
        </mxCell>
        <mxCell id="Hu--qqsxAzfkZEmvc5kn-91" value="nombre_vulnerabilidad" style="ellipse;whiteSpace=wrap;html=1;" parent="1" vertex="1">
          <mxGeometry x="1400" y="501.25" width="150" height="40" as="geometry" />
        </mxCell>
        <mxCell id="Hu--qqsxAzfkZEmvc5kn-93" style="edgeStyle=orthogonalEdgeStyle;curved=1;rounded=0;orthogonalLoop=1;jettySize=auto;html=1;entryX=0.5;entryY=1;entryDx=0;entryDy=0;strokeColor=default;align=center;verticalAlign=middle;fontFamily=Helvetica;fontSize=11;fontColor=default;labelBackgroundColor=default;endArrow=none;endFill=0;startArrow=block;startFill=1;" parent="1" source="Hu--qqsxAzfkZEmvc5kn-94" target="dCW9297O5qJF-ojRRb4r-5" edge="1">
          <mxGeometry relative="1" as="geometry" />
        </mxCell>
        <mxCell id="Hu--qqsxAzfkZEmvc5kn-94" value="INCLUYE" style="rhombus;whiteSpace=wrap;html=1;fontFamily=Helvetica;fontSize=11;fontColor=default;labelBackgroundColor=default;" parent="1" vertex="1">
          <mxGeometry x="960" y="627.5" width="100" height="62.5" as="geometry" />
        </mxCell>
        <mxCell id="Hu--qqsxAzfkZEmvc5kn-102" style="edgeStyle=orthogonalEdgeStyle;curved=1;rounded=0;orthogonalLoop=1;jettySize=auto;html=1;entryX=0;entryY=0.5;entryDx=0;entryDy=0;strokeColor=default;align=center;verticalAlign=middle;fontFamily=Helvetica;fontSize=11;fontColor=default;labelBackgroundColor=default;endArrow=none;endFill=0;" parent="1" source="Hu--qqsxAzfkZEmvc5kn-101" target="Hu--qqsxAzfkZEmvc5kn-65" edge="1">
          <mxGeometry relative="1" as="geometry" />
        </mxCell>
        <mxCell id="Hu--qqsxAzfkZEmvc5kn-101" value="datos_comprometidos" style="ellipse;whiteSpace=wrap;html=1;" parent="1" vertex="1">
          <mxGeometry x="770" y="470" width="150" height="40" as="geometry" />
        </mxCell>
        <mxCell id="Hu--qqsxAzfkZEmvc5kn-103" value="N" style="text;html=1;align=center;verticalAlign=middle;resizable=0;points=[];autosize=1;strokeColor=none;fillColor=none;fontFamily=Helvetica;fontSize=11;fontColor=default;labelBackgroundColor=default;" parent="1" vertex="1">
          <mxGeometry x="1125" y="518" width="30" height="30" as="geometry" />
        </mxCell>
        <mxCell id="Hu--qqsxAzfkZEmvc5kn-104" value="N" style="text;html=1;align=center;verticalAlign=middle;resizable=0;points=[];autosize=1;strokeColor=none;fillColor=none;fontFamily=Helvetica;fontSize=11;fontColor=default;labelBackgroundColor=default;" parent="1" vertex="1">
          <mxGeometry x="995" y="418" width="30" height="30" as="geometry" />
        </mxCell>
        <mxCell id="Hu--qqsxAzfkZEmvc5kn-107" style="edgeStyle=orthogonalEdgeStyle;curved=1;rounded=0;orthogonalLoop=1;jettySize=auto;html=1;strokeColor=default;align=center;verticalAlign=middle;fontFamily=Helvetica;fontSize=11;fontColor=default;labelBackgroundColor=default;endArrow=none;endFill=0;" parent="1" source="Hu--qqsxAzfkZEmvc5kn-105" target="dCW9297O5qJF-ojRRb4r-10" edge="1">
          <mxGeometry relative="1" as="geometry" />
        </mxCell>
        <mxCell id="Hu--qqsxAzfkZEmvc5kn-105" value="vulnerabilidad_id" style="ellipse;whiteSpace=wrap;html=1;" parent="1" vertex="1">
          <mxGeometry x="405" y="845" width="120" height="40" as="geometry" />
        </mxCell>
        <mxCell id="Hu--qqsxAzfkZEmvc5kn-108" style="edgeStyle=orthogonalEdgeStyle;curved=1;rounded=0;orthogonalLoop=1;jettySize=auto;html=1;entryX=1;entryY=0.5;entryDx=0;entryDy=0;strokeColor=default;align=center;verticalAlign=middle;fontFamily=Helvetica;fontSize=11;fontColor=default;labelBackgroundColor=default;endArrow=none;endFill=0;" parent="1" source="dCW9297O5qJF-ojRRb4r-10" target="Hu--qqsxAzfkZEmvc5kn-55" edge="1">
          <mxGeometry relative="1" as="geometry" />
        </mxCell>
        <mxCell id="Hu--qqsxAzfkZEmvc5kn-109" value="descripcion" style="ellipse;whiteSpace=wrap;html=1;" parent="1" vertex="1">
          <mxGeometry x="430" y="270" width="70" height="40" as="geometry" />
        </mxCell>
        <mxCell id="Hu--qqsxAzfkZEmvc5kn-110" style="edgeStyle=orthogonalEdgeStyle;curved=1;rounded=0;orthogonalLoop=1;jettySize=auto;html=1;entryX=0.61;entryY=0.968;entryDx=0;entryDy=0;entryPerimeter=0;strokeColor=default;align=center;verticalAlign=middle;fontFamily=Helvetica;fontSize=11;fontColor=default;labelBackgroundColor=default;endArrow=classic;" parent="1" target="Hu--qqsxAzfkZEmvc5kn-109" edge="1">
          <mxGeometry relative="1" as="geometry">
            <mxPoint x="460" y="400" as="sourcePoint" />
          </mxGeometry>
        </mxCell>
        <mxCell id="Hu--qqsxAzfkZEmvc5kn-118" style="edgeStyle=orthogonalEdgeStyle;curved=1;rounded=0;orthogonalLoop=1;jettySize=auto;html=1;entryX=0.75;entryY=1;entryDx=0;entryDy=0;strokeColor=default;align=center;verticalAlign=middle;fontFamily=Helvetica;fontSize=11;fontColor=default;labelBackgroundColor=default;endArrow=none;endFill=0;" parent="1" source="Hu--qqsxAzfkZEmvc5kn-117" target="dCW9297O5qJF-ojRRb4r-5" edge="1">
          <mxGeometry relative="1" as="geometry" />
        </mxCell>
        <mxCell id="Hu--qqsxAzfkZEmvc5kn-117" value="descripcion_vulnerabilidad" style="ellipse;whiteSpace=wrap;html=1;" parent="1" vertex="1">
          <mxGeometry x="1340" y="560" width="150" height="40" as="geometry" />
        </mxCell>
        <mxCell id="Hu--qqsxAzfkZEmvc5kn-120" value="usuario_id" style="ellipse;whiteSpace=wrap;html=1;" parent="1" vertex="1">
          <mxGeometry x="190" y="610" width="70" height="30" as="geometry" />
        </mxCell>
        <mxCell id="Hu--qqsxAzfkZEmvc5kn-121" value="email_usuario" style="ellipse;whiteSpace=wrap;html=1;" parent="1" vertex="1">
          <mxGeometry x="110" y="660" width="100" height="30" as="geometry" />
        </mxCell>
        <mxCell id="Hu--qqsxAzfkZEmvc5kn-123" value="apellido_usuario" style="ellipse;whiteSpace=wrap;html=1;" parent="1" vertex="1">
          <mxGeometry x="150" y="790" width="80" height="30" as="geometry" />
        </mxCell>
        <mxCell id="Hu--qqsxAzfkZEmvc5kn-124" value="nombre_usuario" style="ellipse;whiteSpace=wrap;html=1;" parent="1" vertex="1">
          <mxGeometry x="100" y="740" width="100" height="30" as="geometry" />
        </mxCell>
        <mxCell id="Hu--qqsxAzfkZEmvc5kn-125" style="edgeStyle=orthogonalEdgeStyle;curved=1;rounded=0;orthogonalLoop=1;jettySize=auto;html=1;entryX=0.938;entryY=0.582;entryDx=0;entryDy=0;entryPerimeter=0;strokeColor=default;align=center;verticalAlign=middle;fontFamily=Helvetica;fontSize=11;fontColor=default;labelBackgroundColor=default;endArrow=none;endFill=0;" parent="1" source="dCW9297O5qJF-ojRRb4r-4" target="Hu--qqsxAzfkZEmvc5kn-121" edge="1">
          <mxGeometry relative="1" as="geometry" />
        </mxCell>
        <mxCell id="Hu--qqsxAzfkZEmvc5kn-128" style="edgeStyle=orthogonalEdgeStyle;curved=1;rounded=0;orthogonalLoop=1;jettySize=auto;html=1;entryX=0.63;entryY=0.01;entryDx=0;entryDy=0;entryPerimeter=0;strokeColor=default;align=center;verticalAlign=middle;fontFamily=Helvetica;fontSize=11;fontColor=default;labelBackgroundColor=default;endArrow=none;endFill=0;" parent="1" source="dCW9297O5qJF-ojRRb4r-4" target="Hu--qqsxAzfkZEmvc5kn-123" edge="1">
          <mxGeometry relative="1" as="geometry" />
        </mxCell>
        <mxCell id="Hu--qqsxAzfkZEmvc5kn-129" value="telefono" style="ellipse;whiteSpace=wrap;html=1;" parent="1" vertex="1">
          <mxGeometry x="210" y="830" width="80" height="30" as="geometry" />
        </mxCell>
        <mxCell id="Hu--qqsxAzfkZEmvc5kn-130" value="rol_usuario" style="ellipse;whiteSpace=wrap;html=1;" parent="1" vertex="1">
          <mxGeometry x="280" y="785" width="80" height="30" as="geometry" />
        </mxCell>
        <mxCell id="Hu--qqsxAzfkZEmvc5kn-137" style="edgeStyle=orthogonalEdgeStyle;curved=1;rounded=0;orthogonalLoop=1;jettySize=auto;html=1;strokeColor=default;align=center;verticalAlign=middle;fontFamily=Helvetica;fontSize=11;fontColor=default;labelBackgroundColor=default;endArrow=blockThin;endFill=1;startArrow=none;startFill=0;" parent="1" source="Hu--qqsxAzfkZEmvc5kn-134" target="dCW9297O5qJF-ojRRb4r-10" edge="1">
          <mxGeometry relative="1" as="geometry" />
        </mxCell>
        <mxCell id="Hu--qqsxAzfkZEmvc5kn-134" value="RESPONDE" style="rhombus;whiteSpace=wrap;html=1;fontFamily=Helvetica;fontSize=11;fontColor=default;labelBackgroundColor=default;" parent="1" vertex="1">
          <mxGeometry x="570" y="870" width="100" height="62.5" as="geometry" />
        </mxCell>
        <mxCell id="Hu--qqsxAzfkZEmvc5kn-139" style="edgeStyle=orthogonalEdgeStyle;curved=1;rounded=0;orthogonalLoop=1;jettySize=auto;html=1;entryX=0.5;entryY=1;entryDx=0;entryDy=0;strokeColor=default;align=center;verticalAlign=middle;fontFamily=Helvetica;fontSize=11;fontColor=default;labelBackgroundColor=default;endArrow=none;endFill=0;startArrow=blockThin;startFill=1;" parent="1" source="Hu--qqsxAzfkZEmvc5kn-135" target="dCW9297O5qJF-ojRRb4r-7" edge="1">
          <mxGeometry relative="1" as="geometry" />
        </mxCell>
        <mxCell id="Hu--qqsxAzfkZEmvc5kn-135" value="CONFORMA" style="rhombus;whiteSpace=wrap;html=1;fontFamily=Helvetica;fontSize=11;fontColor=default;labelBackgroundColor=default;" parent="1" vertex="1">
          <mxGeometry x="1070" y="870" width="100" height="62.5" as="geometry" />
        </mxCell>
        <mxCell id="Hu--qqsxAzfkZEmvc5kn-140" value="personal_ir_id" style="ellipse;whiteSpace=wrap;html=1;" parent="1" vertex="1">
          <mxGeometry x="1140" y="690" width="86" height="40" as="geometry" />
        </mxCell>
        <mxCell id="Hu--qqsxAzfkZEmvc5kn-142" value="apellido_personal_ir" style="ellipse;whiteSpace=wrap;html=1;" parent="1" vertex="1">
          <mxGeometry x="1310" y="717.5" width="125" height="35" as="geometry" />
        </mxCell>
        <mxCell id="Hu--qqsxAzfkZEmvc5kn-143" value="nombre_personal_ir" style="ellipse;whiteSpace=wrap;html=1;" parent="1" vertex="1">
          <mxGeometry x="1226" y="640" width="124" height="40" as="geometry" />
        </mxCell>
        <mxCell id="Hu--qqsxAzfkZEmvc5kn-144" value="rol_personal_ir" style="ellipse;whiteSpace=wrap;html=1;" parent="1" vertex="1">
          <mxGeometry x="1280" y="810" width="110" height="30" as="geometry" />
        </mxCell>
        <mxCell id="Hu--qqsxAzfkZEmvc5kn-146" style="edgeStyle=orthogonalEdgeStyle;curved=1;rounded=0;orthogonalLoop=1;jettySize=auto;html=1;strokeColor=default;align=center;verticalAlign=middle;fontFamily=Helvetica;fontSize=11;fontColor=default;labelBackgroundColor=default;endArrow=none;endFill=0;" parent="1" source="dCW9297O5qJF-ojRRb4r-7" target="Hu--qqsxAzfkZEmvc5kn-143" edge="1">
          <mxGeometry relative="1" as="geometry" />
        </mxCell>
        <mxCell id="Hu--qqsxAzfkZEmvc5kn-148" style="edgeStyle=orthogonalEdgeStyle;curved=1;rounded=0;orthogonalLoop=1;jettySize=auto;html=1;entryX=0.37;entryY=-0.064;entryDx=0;entryDy=0;entryPerimeter=0;strokeColor=default;align=center;verticalAlign=middle;fontFamily=Helvetica;fontSize=11;fontColor=default;labelBackgroundColor=default;endArrow=none;endFill=0;" parent="1" source="dCW9297O5qJF-ojRRb4r-7" target="Hu--qqsxAzfkZEmvc5kn-144" edge="1">
          <mxGeometry relative="1" as="geometry" />
        </mxCell>
        <mxCell id="Hu--qqsxAzfkZEmvc5kn-149" value="equipo_id" style="ellipse;whiteSpace=wrap;html=1;" parent="1" vertex="1">
          <mxGeometry x="1224" y="860" width="86" height="40" as="geometry" />
        </mxCell>
        <mxCell id="Hu--qqsxAzfkZEmvc5kn-150" value="nombre_equipo" style="ellipse;whiteSpace=wrap;html=1;" parent="1" vertex="1">
          <mxGeometry x="812" y="745" width="106" height="40" as="geometry" />
        </mxCell>
        <mxCell id="Hu--qqsxAzfkZEmvc5kn-151" value="descripcion_equipo" style="ellipse;whiteSpace=wrap;html=1;" parent="1" vertex="1">
          <mxGeometry x="947" y="820" width="130" height="40" as="geometry" />
        </mxCell>
        <mxCell id="Hu--qqsxAzfkZEmvc5kn-154" style="edgeStyle=orthogonalEdgeStyle;curved=1;rounded=0;orthogonalLoop=1;jettySize=auto;html=1;entryX=0.667;entryY=0.125;entryDx=0;entryDy=0;entryPerimeter=0;strokeColor=default;align=center;verticalAlign=middle;fontFamily=Helvetica;fontSize=11;fontColor=default;labelBackgroundColor=default;endArrow=none;endFill=0;" parent="1" source="Hu--qqsxAzfkZEmvc5kn-151" target="dCW9297O5qJF-ojRRb4r-6" edge="1">
          <mxGeometry relative="1" as="geometry" />
        </mxCell>
        <mxCell id="Hu--qqsxAzfkZEmvc5kn-156" value="equipo_id" style="ellipse;whiteSpace=wrap;html=1;" parent="1" vertex="1">
          <mxGeometry x="710" y="800" width="86" height="40" as="geometry" />
        </mxCell>
        <mxCell id="Hu--qqsxAzfkZEmvc5kn-158" value="1" style="text;html=1;align=center;verticalAlign=middle;resizable=0;points=[];autosize=1;strokeColor=none;fillColor=none;fontFamily=Helvetica;fontSize=11;fontColor=default;labelBackgroundColor=default;" parent="1" vertex="1">
          <mxGeometry x="835" y="388" width="30" height="30" as="geometry" />
        </mxCell>
        <mxCell id="Hu--qqsxAzfkZEmvc5kn-159" value="N" style="text;html=1;align=center;verticalAlign=middle;resizable=0;points=[];autosize=1;strokeColor=none;fillColor=none;fontFamily=Helvetica;fontSize=11;fontColor=default;labelBackgroundColor=default;" parent="1" vertex="1">
          <mxGeometry x="555" y="388" width="30" height="30" as="geometry" />
        </mxCell>
        <mxCell id="Hu--qqsxAzfkZEmvc5kn-160" value="N" style="text;html=1;align=center;verticalAlign=middle;resizable=0;points=[];autosize=1;strokeColor=none;fillColor=none;fontFamily=Helvetica;fontSize=11;fontColor=default;labelBackgroundColor=default;" parent="1" vertex="1">
          <mxGeometry x="615" y="688" width="30" height="30" as="geometry" />
        </mxCell>
        <mxCell id="Hu--qqsxAzfkZEmvc5kn-161" value="1" style="text;html=1;align=center;verticalAlign=middle;resizable=0;points=[];autosize=1;strokeColor=none;fillColor=none;fontFamily=Helvetica;fontSize=11;fontColor=default;labelBackgroundColor=default;" parent="1" vertex="1">
          <mxGeometry x="525" y="418" width="30" height="30" as="geometry" />
        </mxCell>
        <mxCell id="Hu--qqsxAzfkZEmvc5kn-162" value="1" style="text;html=1;align=center;verticalAlign=middle;resizable=0;points=[];autosize=1;strokeColor=none;fillColor=none;fontFamily=Helvetica;fontSize=11;fontColor=default;labelBackgroundColor=default;" parent="1" vertex="1">
          <mxGeometry x="335" y="688" width="30" height="30" as="geometry" />
        </mxCell>
        <mxCell id="Hu--qqsxAzfkZEmvc5kn-163" value="N" style="text;html=1;align=center;verticalAlign=middle;resizable=0;points=[];autosize=1;strokeColor=none;fillColor=none;fontFamily=Helvetica;fontSize=11;fontColor=default;labelBackgroundColor=default;" parent="1" vertex="1">
          <mxGeometry x="375" y="418" width="30" height="30" as="geometry" />
        </mxCell>
        <mxCell id="Hu--qqsxAzfkZEmvc5kn-164" value="1" style="text;html=1;align=center;verticalAlign=middle;resizable=0;points=[];autosize=1;strokeColor=none;fillColor=none;fontFamily=Helvetica;fontSize=11;fontColor=default;labelBackgroundColor=default;" parent="1" vertex="1">
          <mxGeometry x="775" y="898" width="30" height="30" as="geometry" />
        </mxCell>
        <mxCell id="Hu--qqsxAzfkZEmvc5kn-165" value="N" style="text;html=1;align=center;verticalAlign=middle;resizable=0;points=[];autosize=1;strokeColor=none;fillColor=none;fontFamily=Helvetica;fontSize=11;fontColor=default;labelBackgroundColor=default;" parent="1" vertex="1">
          <mxGeometry x="615" y="752.5" width="30" height="30" as="geometry" />
        </mxCell>
        <mxCell id="Hu--qqsxAzfkZEmvc5kn-166" value="1" style="text;html=1;align=center;verticalAlign=middle;resizable=0;points=[];autosize=1;strokeColor=none;fillColor=none;fontFamily=Helvetica;fontSize=11;fontColor=default;labelBackgroundColor=default;" parent="1" vertex="1">
          <mxGeometry x="915" y="898" width="30" height="30" as="geometry" />
        </mxCell>
        <mxCell id="Hu--qqsxAzfkZEmvc5kn-167" value="N" style="text;html=1;align=center;verticalAlign=middle;resizable=0;points=[];autosize=1;strokeColor=none;fillColor=none;fontFamily=Helvetica;fontSize=11;fontColor=default;labelBackgroundColor=default;" parent="1" vertex="1">
          <mxGeometry x="1115" y="788" width="30" height="30" as="geometry" />
        </mxCell>
        <mxCell id="LeRdlQffRXMQm99WUG5v-1" value="equipo_id" style="ellipse;whiteSpace=wrap;html=1;" parent="1" vertex="1">
          <mxGeometry x="424" y="560" width="86" height="40" as="geometry" />
        </mxCell>
        <mxCell id="z0Vbj68APKnzkqN6gRY8-1" value="N" style="text;html=1;align=center;verticalAlign=middle;resizable=0;points=[];autosize=1;strokeColor=none;fillColor=none;" parent="1" vertex="1">
          <mxGeometry x="710" y="730" width="30" height="30" as="geometry" />
        </mxCell>
        <mxCell id="z0Vbj68APKnzkqN6gRY8-2" value="1" style="text;html=1;align=center;verticalAlign=middle;resizable=0;points=[];autosize=1;strokeColor=none;fillColor=none;" parent="1" vertex="1">
          <mxGeometry x="1195" y="558" width="30" height="30" as="geometry" />
        </mxCell>
      </root>
    </mxGraphModel>
  </diagram>
  <diagram id="2mV1jrtmkv28KUBQcJml" name="Relacional">
    <mxGraphModel dx="998" dy="672" grid="1" gridSize="10" guides="1" tooltips="1" connect="1" arrows="1" fold="1" page="1" pageScale="1" pageWidth="827" pageHeight="1169" math="0" shadow="0">
      <root>
        <mxCell id="0" />
        <mxCell id="1" parent="0" />
        <mxCell id="HDH8QybaCd2DfPCNLPIO-1" value="USUARIO" style="shape=table;startSize=25;container=1;collapsible=0;childLayout=tableLayout;fixedRows=1;rowLines=1;fontStyle=1;align=center;resizeLast=1;" parent="1" vertex="1">
          <mxGeometry x="77" y="287" width="143" height="157" as="geometry" />
        </mxCell>
        <mxCell id="HDH8QybaCd2DfPCNLPIO-2" style="shape=tableRow;horizontal=0;startSize=0;swimlaneHead=0;swimlaneBody=0;fillColor=none;collapsible=0;dropTarget=0;points=[[0,0.5],[1,0.5]];portConstraint=eastwest;top=0;left=0;right=0;bottom=0;" parent="HDH8QybaCd2DfPCNLPIO-1" vertex="1">
          <mxGeometry y="25" width="143" height="22" as="geometry" />
        </mxCell>
        <mxCell id="HDH8QybaCd2DfPCNLPIO-3" value="char" style="shape=partialRectangle;connectable=0;fillColor=none;top=0;left=0;bottom=0;right=0;align=left;spacingLeft=2;overflow=hidden;fontSize=11;" parent="HDH8QybaCd2DfPCNLPIO-2" vertex="1">
          <mxGeometry width="49" height="22" as="geometry">
            <mxRectangle width="49" height="22" as="alternateBounds" />
          </mxGeometry>
        </mxCell>
        <mxCell id="HDH8QybaCd2DfPCNLPIO-4" value="usuario_id  (PK)" style="shape=partialRectangle;connectable=0;fillColor=none;top=0;left=0;bottom=0;right=0;align=left;spacingLeft=2;overflow=hidden;fontSize=11;" parent="HDH8QybaCd2DfPCNLPIO-2" vertex="1">
          <mxGeometry x="49" width="94" height="22" as="geometry">
            <mxRectangle width="94" height="22" as="alternateBounds" />
          </mxGeometry>
        </mxCell>
        <mxCell id="HDH8QybaCd2DfPCNLPIO-5" style="shape=tableRow;horizontal=0;startSize=0;swimlaneHead=0;swimlaneBody=0;fillColor=none;collapsible=0;dropTarget=0;points=[[0,0.5],[1,0.5]];portConstraint=eastwest;top=0;left=0;right=0;bottom=0;" parent="HDH8QybaCd2DfPCNLPIO-1" vertex="1">
          <mxGeometry y="47" width="143" height="22" as="geometry" />
        </mxCell>
        <mxCell id="HDH8QybaCd2DfPCNLPIO-6" value="varchar" style="shape=partialRectangle;connectable=0;fillColor=none;top=0;left=0;bottom=0;right=0;align=left;spacingLeft=2;overflow=hidden;fontSize=11;" parent="HDH8QybaCd2DfPCNLPIO-5" vertex="1">
          <mxGeometry width="49" height="22" as="geometry">
            <mxRectangle width="49" height="22" as="alternateBounds" />
          </mxGeometry>
        </mxCell>
        <mxCell id="HDH8QybaCd2DfPCNLPIO-7" value="nombre_usuario" style="shape=partialRectangle;connectable=0;fillColor=none;top=0;left=0;bottom=0;right=0;align=left;spacingLeft=2;overflow=hidden;fontSize=11;" parent="HDH8QybaCd2DfPCNLPIO-5" vertex="1">
          <mxGeometry x="49" width="94" height="22" as="geometry">
            <mxRectangle width="94" height="22" as="alternateBounds" />
          </mxGeometry>
        </mxCell>
        <mxCell id="HDH8QybaCd2DfPCNLPIO-8" style="shape=tableRow;horizontal=0;startSize=0;swimlaneHead=0;swimlaneBody=0;fillColor=none;collapsible=0;dropTarget=0;points=[[0,0.5],[1,0.5]];portConstraint=eastwest;top=0;left=0;right=0;bottom=0;" parent="HDH8QybaCd2DfPCNLPIO-1" vertex="1">
          <mxGeometry y="69" width="143" height="22" as="geometry" />
        </mxCell>
        <mxCell id="HDH8QybaCd2DfPCNLPIO-9" value="varchar" style="shape=partialRectangle;connectable=0;fillColor=none;top=0;left=0;bottom=0;right=0;align=left;spacingLeft=2;overflow=hidden;fontSize=11;" parent="HDH8QybaCd2DfPCNLPIO-8" vertex="1">
          <mxGeometry width="49" height="22" as="geometry">
            <mxRectangle width="49" height="22" as="alternateBounds" />
          </mxGeometry>
        </mxCell>
        <mxCell id="HDH8QybaCd2DfPCNLPIO-10" value="apellido_usuario" style="shape=partialRectangle;connectable=0;fillColor=none;top=0;left=0;bottom=0;right=0;align=left;spacingLeft=2;overflow=hidden;fontSize=11;" parent="HDH8QybaCd2DfPCNLPIO-8" vertex="1">
          <mxGeometry x="49" width="94" height="22" as="geometry">
            <mxRectangle width="94" height="22" as="alternateBounds" />
          </mxGeometry>
        </mxCell>
        <mxCell id="HDH8QybaCd2DfPCNLPIO-11" style="shape=tableRow;horizontal=0;startSize=0;swimlaneHead=0;swimlaneBody=0;fillColor=none;collapsible=0;dropTarget=0;points=[[0,0.5],[1,0.5]];portConstraint=eastwest;top=0;left=0;right=0;bottom=0;" parent="HDH8QybaCd2DfPCNLPIO-1" vertex="1">
          <mxGeometry y="91" width="143" height="22" as="geometry" />
        </mxCell>
        <mxCell id="HDH8QybaCd2DfPCNLPIO-12" value="varchar" style="shape=partialRectangle;connectable=0;fillColor=none;top=0;left=0;bottom=0;right=0;align=left;spacingLeft=2;overflow=hidden;fontSize=11;" parent="HDH8QybaCd2DfPCNLPIO-11" vertex="1">
          <mxGeometry width="49" height="22" as="geometry">
            <mxRectangle width="49" height="22" as="alternateBounds" />
          </mxGeometry>
        </mxCell>
        <mxCell id="HDH8QybaCd2DfPCNLPIO-13" value="email_usuario" style="shape=partialRectangle;connectable=0;fillColor=none;top=0;left=0;bottom=0;right=0;align=left;spacingLeft=2;overflow=hidden;fontSize=11;" parent="HDH8QybaCd2DfPCNLPIO-11" vertex="1">
          <mxGeometry x="49" width="94" height="22" as="geometry">
            <mxRectangle width="94" height="22" as="alternateBounds" />
          </mxGeometry>
        </mxCell>
        <mxCell id="HDH8QybaCd2DfPCNLPIO-14" style="shape=tableRow;horizontal=0;startSize=0;swimlaneHead=0;swimlaneBody=0;fillColor=none;collapsible=0;dropTarget=0;points=[[0,0.5],[1,0.5]];portConstraint=eastwest;top=0;left=0;right=0;bottom=0;" parent="HDH8QybaCd2DfPCNLPIO-1" vertex="1">
          <mxGeometry y="113" width="143" height="22" as="geometry" />
        </mxCell>
        <mxCell id="HDH8QybaCd2DfPCNLPIO-15" value="varchar" style="shape=partialRectangle;connectable=0;fillColor=none;top=0;left=0;bottom=0;right=0;align=left;spacingLeft=2;overflow=hidden;fontSize=11;" parent="HDH8QybaCd2DfPCNLPIO-14" vertex="1">
          <mxGeometry width="49" height="22" as="geometry">
            <mxRectangle width="49" height="22" as="alternateBounds" />
          </mxGeometry>
        </mxCell>
        <mxCell id="HDH8QybaCd2DfPCNLPIO-16" value="rol_usuario" style="shape=partialRectangle;connectable=0;fillColor=none;top=0;left=0;bottom=0;right=0;align=left;spacingLeft=2;overflow=hidden;fontSize=11;" parent="HDH8QybaCd2DfPCNLPIO-14" vertex="1">
          <mxGeometry x="49" width="94" height="22" as="geometry">
            <mxRectangle width="94" height="22" as="alternateBounds" />
          </mxGeometry>
        </mxCell>
        <mxCell id="HDH8QybaCd2DfPCNLPIO-17" style="shape=tableRow;horizontal=0;startSize=0;swimlaneHead=0;swimlaneBody=0;fillColor=none;collapsible=0;dropTarget=0;points=[[0,0.5],[1,0.5]];portConstraint=eastwest;top=0;left=0;right=0;bottom=0;" parent="HDH8QybaCd2DfPCNLPIO-1" vertex="1">
          <mxGeometry y="135" width="143" height="22" as="geometry" />
        </mxCell>
        <mxCell id="HDH8QybaCd2DfPCNLPIO-18" value="varchar" style="shape=partialRectangle;connectable=0;fillColor=none;top=0;left=0;bottom=0;right=0;align=left;spacingLeft=2;overflow=hidden;fontSize=11;" parent="HDH8QybaCd2DfPCNLPIO-17" vertex="1">
          <mxGeometry width="49" height="22" as="geometry">
            <mxRectangle width="49" height="22" as="alternateBounds" />
          </mxGeometry>
        </mxCell>
        <mxCell id="HDH8QybaCd2DfPCNLPIO-19" value="telefono" style="shape=partialRectangle;connectable=0;fillColor=none;top=0;left=0;bottom=0;right=0;align=left;spacingLeft=2;overflow=hidden;fontSize=11;" parent="HDH8QybaCd2DfPCNLPIO-17" vertex="1">
          <mxGeometry x="49" width="94" height="22" as="geometry">
            <mxRectangle width="94" height="22" as="alternateBounds" />
          </mxGeometry>
        </mxCell>
        <mxCell id="HDH8QybaCd2DfPCNLPIO-20" value="INCIDENTE" style="shape=table;startSize=25;container=1;collapsible=0;childLayout=tableLayout;fixedRows=1;rowLines=1;fontStyle=1;align=center;resizeLast=1;" parent="1" vertex="1">
          <mxGeometry x="80" y="517" width="140" height="179" as="geometry" />
        </mxCell>
        <mxCell id="HDH8QybaCd2DfPCNLPIO-21" style="shape=tableRow;horizontal=0;startSize=0;swimlaneHead=0;swimlaneBody=0;fillColor=none;collapsible=0;dropTarget=0;points=[[0,0.5],[1,0.5]];portConstraint=eastwest;top=0;left=0;right=0;bottom=0;" parent="HDH8QybaCd2DfPCNLPIO-20" vertex="1">
          <mxGeometry y="25" width="140" height="22" as="geometry" />
        </mxCell>
        <mxCell id="HDH8QybaCd2DfPCNLPIO-22" value="char" style="shape=partialRectangle;connectable=0;fillColor=none;top=0;left=0;bottom=0;right=0;align=left;spacingLeft=2;overflow=hidden;fontSize=11;" parent="HDH8QybaCd2DfPCNLPIO-21" vertex="1">
          <mxGeometry width="50" height="22" as="geometry">
            <mxRectangle width="50" height="22" as="alternateBounds" />
          </mxGeometry>
        </mxCell>
        <mxCell id="HDH8QybaCd2DfPCNLPIO-23" value="incidente_id (PK)" style="shape=partialRectangle;connectable=0;fillColor=none;top=0;left=0;bottom=0;right=0;align=left;spacingLeft=2;overflow=hidden;fontSize=11;" parent="HDH8QybaCd2DfPCNLPIO-21" vertex="1">
          <mxGeometry x="50" width="90" height="22" as="geometry">
            <mxRectangle width="90" height="22" as="alternateBounds" />
          </mxGeometry>
        </mxCell>
        <mxCell id="HDH8QybaCd2DfPCNLPIO-24" style="shape=tableRow;horizontal=0;startSize=0;swimlaneHead=0;swimlaneBody=0;fillColor=none;collapsible=0;dropTarget=0;points=[[0,0.5],[1,0.5]];portConstraint=eastwest;top=0;left=0;right=0;bottom=0;" parent="HDH8QybaCd2DfPCNLPIO-20" vertex="1">
          <mxGeometry y="47" width="140" height="22" as="geometry" />
        </mxCell>
        <mxCell id="HDH8QybaCd2DfPCNLPIO-25" value="varchar" style="shape=partialRectangle;connectable=0;fillColor=none;top=0;left=0;bottom=0;right=0;align=left;spacingLeft=2;overflow=hidden;fontSize=11;" parent="HDH8QybaCd2DfPCNLPIO-24" vertex="1">
          <mxGeometry width="50" height="22" as="geometry">
            <mxRectangle width="50" height="22" as="alternateBounds" />
          </mxGeometry>
        </mxCell>
        <mxCell id="HDH8QybaCd2DfPCNLPIO-26" value="descripcion" style="shape=partialRectangle;connectable=0;fillColor=none;top=0;left=0;bottom=0;right=0;align=left;spacingLeft=2;overflow=hidden;fontSize=11;" parent="HDH8QybaCd2DfPCNLPIO-24" vertex="1">
          <mxGeometry x="50" width="90" height="22" as="geometry">
            <mxRectangle width="90" height="22" as="alternateBounds" />
          </mxGeometry>
        </mxCell>
        <mxCell id="HDH8QybaCd2DfPCNLPIO-27" style="shape=tableRow;horizontal=0;startSize=0;swimlaneHead=0;swimlaneBody=0;fillColor=none;collapsible=0;dropTarget=0;points=[[0,0.5],[1,0.5]];portConstraint=eastwest;top=0;left=0;right=0;bottom=0;" parent="HDH8QybaCd2DfPCNLPIO-20" vertex="1">
          <mxGeometry y="69" width="140" height="22" as="geometry" />
        </mxCell>
        <mxCell id="HDH8QybaCd2DfPCNLPIO-28" value="date" style="shape=partialRectangle;connectable=0;fillColor=none;top=0;left=0;bottom=0;right=0;align=left;spacingLeft=2;overflow=hidden;fontSize=11;" parent="HDH8QybaCd2DfPCNLPIO-27" vertex="1">
          <mxGeometry width="50" height="22" as="geometry">
            <mxRectangle width="50" height="22" as="alternateBounds" />
          </mxGeometry>
        </mxCell>
        <mxCell id="HDH8QybaCd2DfPCNLPIO-29" value="fecha" style="shape=partialRectangle;connectable=0;fillColor=none;top=0;left=0;bottom=0;right=0;align=left;spacingLeft=2;overflow=hidden;fontSize=11;" parent="HDH8QybaCd2DfPCNLPIO-27" vertex="1">
          <mxGeometry x="50" width="90" height="22" as="geometry">
            <mxRectangle width="90" height="22" as="alternateBounds" />
          </mxGeometry>
        </mxCell>
        <mxCell id="HDH8QybaCd2DfPCNLPIO-30" style="shape=tableRow;horizontal=0;startSize=0;swimlaneHead=0;swimlaneBody=0;fillColor=none;collapsible=0;dropTarget=0;points=[[0,0.5],[1,0.5]];portConstraint=eastwest;top=0;left=0;right=0;bottom=0;" parent="HDH8QybaCd2DfPCNLPIO-20" vertex="1">
          <mxGeometry y="91" width="140" height="22" as="geometry" />
        </mxCell>
        <mxCell id="HDH8QybaCd2DfPCNLPIO-31" value="varchar" style="shape=partialRectangle;connectable=0;fillColor=none;top=0;left=0;bottom=0;right=0;align=left;spacingLeft=2;overflow=hidden;fontSize=11;" parent="HDH8QybaCd2DfPCNLPIO-30" vertex="1">
          <mxGeometry width="50" height="22" as="geometry">
            <mxRectangle width="50" height="22" as="alternateBounds" />
          </mxGeometry>
        </mxCell>
        <mxCell id="HDH8QybaCd2DfPCNLPIO-32" value="gravedad" style="shape=partialRectangle;connectable=0;fillColor=none;top=0;left=0;bottom=0;right=0;align=left;spacingLeft=2;overflow=hidden;fontSize=11;" parent="HDH8QybaCd2DfPCNLPIO-30" vertex="1">
          <mxGeometry x="50" width="90" height="22" as="geometry">
            <mxRectangle width="90" height="22" as="alternateBounds" />
          </mxGeometry>
        </mxCell>
        <mxCell id="HDH8QybaCd2DfPCNLPIO-33" style="shape=tableRow;horizontal=0;startSize=0;swimlaneHead=0;swimlaneBody=0;fillColor=none;collapsible=0;dropTarget=0;points=[[0,0.5],[1,0.5]];portConstraint=eastwest;top=0;left=0;right=0;bottom=0;" parent="HDH8QybaCd2DfPCNLPIO-20" vertex="1">
          <mxGeometry y="113" width="140" height="22" as="geometry" />
        </mxCell>
        <mxCell id="HDH8QybaCd2DfPCNLPIO-34" value="varchar" style="shape=partialRectangle;connectable=0;fillColor=none;top=0;left=0;bottom=0;right=0;align=left;spacingLeft=2;overflow=hidden;fontSize=11;" parent="HDH8QybaCd2DfPCNLPIO-33" vertex="1">
          <mxGeometry width="50" height="22" as="geometry">
            <mxRectangle width="50" height="22" as="alternateBounds" />
          </mxGeometry>
        </mxCell>
        <mxCell id="HDH8QybaCd2DfPCNLPIO-35" value="estado" style="shape=partialRectangle;connectable=0;fillColor=none;top=0;left=0;bottom=0;right=0;align=left;spacingLeft=2;overflow=hidden;fontSize=11;" parent="HDH8QybaCd2DfPCNLPIO-33" vertex="1">
          <mxGeometry x="50" width="90" height="22" as="geometry">
            <mxRectangle width="90" height="22" as="alternateBounds" />
          </mxGeometry>
        </mxCell>
        <mxCell id="uKc_ZrZ4B7ZpN3C4jc2D-1" style="shape=tableRow;horizontal=0;startSize=0;swimlaneHead=0;swimlaneBody=0;fillColor=none;collapsible=0;dropTarget=0;points=[[0,0.5],[1,0.5]];portConstraint=eastwest;top=0;left=0;right=0;bottom=0;" parent="HDH8QybaCd2DfPCNLPIO-20" vertex="1">
          <mxGeometry y="135" width="140" height="22" as="geometry" />
        </mxCell>
        <mxCell id="uKc_ZrZ4B7ZpN3C4jc2D-2" value="char" style="shape=partialRectangle;connectable=0;fillColor=none;top=0;left=0;bottom=0;right=0;align=left;spacingLeft=2;overflow=hidden;fontSize=11;" parent="uKc_ZrZ4B7ZpN3C4jc2D-1" vertex="1">
          <mxGeometry width="50" height="22" as="geometry">
            <mxRectangle width="50" height="22" as="alternateBounds" />
          </mxGeometry>
        </mxCell>
        <mxCell id="uKc_ZrZ4B7ZpN3C4jc2D-3" value="activo_id (FK)" style="shape=partialRectangle;connectable=0;fillColor=none;top=0;left=0;bottom=0;right=0;align=left;spacingLeft=2;overflow=hidden;fontSize=11;" parent="uKc_ZrZ4B7ZpN3C4jc2D-1" vertex="1">
          <mxGeometry x="50" width="90" height="22" as="geometry">
            <mxRectangle width="90" height="22" as="alternateBounds" />
          </mxGeometry>
        </mxCell>
        <mxCell id="HDH8QybaCd2DfPCNLPIO-36" style="shape=tableRow;horizontal=0;startSize=0;swimlaneHead=0;swimlaneBody=0;fillColor=none;collapsible=0;dropTarget=0;points=[[0,0.5],[1,0.5]];portConstraint=eastwest;top=0;left=0;right=0;bottom=0;" parent="HDH8QybaCd2DfPCNLPIO-20" vertex="1">
          <mxGeometry y="157" width="140" height="22" as="geometry" />
        </mxCell>
        <mxCell id="HDH8QybaCd2DfPCNLPIO-37" value="char" style="shape=partialRectangle;connectable=0;fillColor=none;top=0;left=0;bottom=0;right=0;align=left;spacingLeft=2;overflow=hidden;fontSize=11;" parent="HDH8QybaCd2DfPCNLPIO-36" vertex="1">
          <mxGeometry width="50" height="22" as="geometry">
            <mxRectangle width="50" height="22" as="alternateBounds" />
          </mxGeometry>
        </mxCell>
        <mxCell id="HDH8QybaCd2DfPCNLPIO-38" value="usuario_id (FK)" style="shape=partialRectangle;connectable=0;fillColor=none;top=0;left=0;bottom=0;right=0;align=left;spacingLeft=2;overflow=hidden;fontSize=11;" parent="HDH8QybaCd2DfPCNLPIO-36" vertex="1">
          <mxGeometry x="50" width="90" height="22" as="geometry">
            <mxRectangle width="90" height="22" as="alternateBounds" />
          </mxGeometry>
        </mxCell>
        <mxCell id="HDH8QybaCd2DfPCNLPIO-39" value="ACTIVO" style="shape=table;startSize=25;container=1;collapsible=0;childLayout=tableLayout;fixedRows=1;rowLines=1;fontStyle=1;align=center;resizeLast=1;" parent="1" vertex="1">
          <mxGeometry x="66" y="757" width="168" height="135" as="geometry" />
        </mxCell>
        <mxCell id="HDH8QybaCd2DfPCNLPIO-40" style="shape=tableRow;horizontal=0;startSize=0;swimlaneHead=0;swimlaneBody=0;fillColor=none;collapsible=0;dropTarget=0;points=[[0,0.5],[1,0.5]];portConstraint=eastwest;top=0;left=0;right=0;bottom=0;" parent="HDH8QybaCd2DfPCNLPIO-39" vertex="1">
          <mxGeometry y="25" width="168" height="22" as="geometry" />
        </mxCell>
        <mxCell id="HDH8QybaCd2DfPCNLPIO-41" value="char" style="shape=partialRectangle;connectable=0;fillColor=none;top=0;left=0;bottom=0;right=0;align=left;spacingLeft=2;overflow=hidden;fontSize=11;" parent="HDH8QybaCd2DfPCNLPIO-40" vertex="1">
          <mxGeometry width="49" height="22" as="geometry">
            <mxRectangle width="49" height="22" as="alternateBounds" />
          </mxGeometry>
        </mxCell>
        <mxCell id="HDH8QybaCd2DfPCNLPIO-42" value="activo_id (PK)" style="shape=partialRectangle;connectable=0;fillColor=none;top=0;left=0;bottom=0;right=0;align=left;spacingLeft=2;overflow=hidden;fontSize=11;" parent="HDH8QybaCd2DfPCNLPIO-40" vertex="1">
          <mxGeometry x="49" width="119" height="22" as="geometry">
            <mxRectangle width="119" height="22" as="alternateBounds" />
          </mxGeometry>
        </mxCell>
        <mxCell id="HDH8QybaCd2DfPCNLPIO-43" style="shape=tableRow;horizontal=0;startSize=0;swimlaneHead=0;swimlaneBody=0;fillColor=none;collapsible=0;dropTarget=0;points=[[0,0.5],[1,0.5]];portConstraint=eastwest;top=0;left=0;right=0;bottom=0;" parent="HDH8QybaCd2DfPCNLPIO-39" vertex="1">
          <mxGeometry y="47" width="168" height="22" as="geometry" />
        </mxCell>
        <mxCell id="HDH8QybaCd2DfPCNLPIO-44" value="varchar" style="shape=partialRectangle;connectable=0;fillColor=none;top=0;left=0;bottom=0;right=0;align=left;spacingLeft=2;overflow=hidden;fontSize=11;" parent="HDH8QybaCd2DfPCNLPIO-43" vertex="1">
          <mxGeometry width="49" height="22" as="geometry">
            <mxRectangle width="49" height="22" as="alternateBounds" />
          </mxGeometry>
        </mxCell>
        <mxCell id="HDH8QybaCd2DfPCNLPIO-45" value="nombre_activo" style="shape=partialRectangle;connectable=0;fillColor=none;top=0;left=0;bottom=0;right=0;align=left;spacingLeft=2;overflow=hidden;fontSize=11;" parent="HDH8QybaCd2DfPCNLPIO-43" vertex="1">
          <mxGeometry x="49" width="119" height="22" as="geometry">
            <mxRectangle width="119" height="22" as="alternateBounds" />
          </mxGeometry>
        </mxCell>
        <mxCell id="HDH8QybaCd2DfPCNLPIO-46" style="shape=tableRow;horizontal=0;startSize=0;swimlaneHead=0;swimlaneBody=0;fillColor=none;collapsible=0;dropTarget=0;points=[[0,0.5],[1,0.5]];portConstraint=eastwest;top=0;left=0;right=0;bottom=0;" parent="HDH8QybaCd2DfPCNLPIO-39" vertex="1">
          <mxGeometry y="69" width="168" height="22" as="geometry" />
        </mxCell>
        <mxCell id="HDH8QybaCd2DfPCNLPIO-47" value="varchar" style="shape=partialRectangle;connectable=0;fillColor=none;top=0;left=0;bottom=0;right=0;align=left;spacingLeft=2;overflow=hidden;fontSize=11;" parent="HDH8QybaCd2DfPCNLPIO-46" vertex="1">
          <mxGeometry width="49" height="22" as="geometry">
            <mxRectangle width="49" height="22" as="alternateBounds" />
          </mxGeometry>
        </mxCell>
        <mxCell id="HDH8QybaCd2DfPCNLPIO-48" value="tipo_activo" style="shape=partialRectangle;connectable=0;fillColor=none;top=0;left=0;bottom=0;right=0;align=left;spacingLeft=2;overflow=hidden;fontSize=11;" parent="HDH8QybaCd2DfPCNLPIO-46" vertex="1">
          <mxGeometry x="49" width="119" height="22" as="geometry">
            <mxRectangle width="119" height="22" as="alternateBounds" />
          </mxGeometry>
        </mxCell>
        <mxCell id="HDH8QybaCd2DfPCNLPIO-49" style="shape=tableRow;horizontal=0;startSize=0;swimlaneHead=0;swimlaneBody=0;fillColor=none;collapsible=0;dropTarget=0;points=[[0,0.5],[1,0.5]];portConstraint=eastwest;top=0;left=0;right=0;bottom=0;" parent="HDH8QybaCd2DfPCNLPIO-39" vertex="1">
          <mxGeometry y="91" width="168" height="22" as="geometry" />
        </mxCell>
        <mxCell id="HDH8QybaCd2DfPCNLPIO-50" value="varchar" style="shape=partialRectangle;connectable=0;fillColor=none;top=0;left=0;bottom=0;right=0;align=left;spacingLeft=2;overflow=hidden;fontSize=11;" parent="HDH8QybaCd2DfPCNLPIO-49" vertex="1">
          <mxGeometry width="49" height="22" as="geometry">
            <mxRectangle width="49" height="22" as="alternateBounds" />
          </mxGeometry>
        </mxCell>
        <mxCell id="HDH8QybaCd2DfPCNLPIO-51" value="direccion_ip" style="shape=partialRectangle;connectable=0;fillColor=none;top=0;left=0;bottom=0;right=0;align=left;spacingLeft=2;overflow=hidden;fontSize=11;" parent="HDH8QybaCd2DfPCNLPIO-49" vertex="1">
          <mxGeometry x="49" width="119" height="22" as="geometry">
            <mxRectangle width="119" height="22" as="alternateBounds" />
          </mxGeometry>
        </mxCell>
        <mxCell id="HDH8QybaCd2DfPCNLPIO-52" style="shape=tableRow;horizontal=0;startSize=0;swimlaneHead=0;swimlaneBody=0;fillColor=none;collapsible=0;dropTarget=0;points=[[0,0.5],[1,0.5]];portConstraint=eastwest;top=0;left=0;right=0;bottom=0;" parent="HDH8QybaCd2DfPCNLPIO-39" vertex="1">
          <mxGeometry y="113" width="168" height="22" as="geometry" />
        </mxCell>
        <mxCell id="HDH8QybaCd2DfPCNLPIO-53" value="varchar" style="shape=partialRectangle;connectable=0;fillColor=none;top=0;left=0;bottom=0;right=0;align=left;spacingLeft=2;overflow=hidden;fontSize=11;" parent="HDH8QybaCd2DfPCNLPIO-52" vertex="1">
          <mxGeometry width="49" height="22" as="geometry">
            <mxRectangle width="49" height="22" as="alternateBounds" />
          </mxGeometry>
        </mxCell>
        <mxCell id="HDH8QybaCd2DfPCNLPIO-54" value="direccion_mac" style="shape=partialRectangle;connectable=0;fillColor=none;top=0;left=0;bottom=0;right=0;align=left;spacingLeft=2;overflow=hidden;fontSize=11;" parent="HDH8QybaCd2DfPCNLPIO-52" vertex="1">
          <mxGeometry x="49" width="119" height="22" as="geometry">
            <mxRectangle width="119" height="22" as="alternateBounds" />
          </mxGeometry>
        </mxCell>
        <mxCell id="HDH8QybaCd2DfPCNLPIO-58" value="VULNERABILIDAD" style="shape=table;startSize=25;container=1;collapsible=0;childLayout=tableLayout;fixedRows=1;rowLines=1;fontStyle=1;align=center;resizeLast=1;" parent="1" vertex="1">
          <mxGeometry x="569.5" y="554" width="192" height="91" as="geometry" />
        </mxCell>
        <mxCell id="HDH8QybaCd2DfPCNLPIO-59" style="shape=tableRow;horizontal=0;startSize=0;swimlaneHead=0;swimlaneBody=0;fillColor=none;collapsible=0;dropTarget=0;points=[[0,0.5],[1,0.5]];portConstraint=eastwest;top=0;left=0;right=0;bottom=0;" parent="HDH8QybaCd2DfPCNLPIO-58" vertex="1">
          <mxGeometry y="25" width="192" height="22" as="geometry" />
        </mxCell>
        <mxCell id="HDH8QybaCd2DfPCNLPIO-60" value="char" style="shape=partialRectangle;connectable=0;fillColor=none;top=0;left=0;bottom=0;right=0;align=left;spacingLeft=2;overflow=hidden;fontSize=11;" parent="HDH8QybaCd2DfPCNLPIO-59" vertex="1">
          <mxGeometry width="45.5" height="22" as="geometry">
            <mxRectangle width="45.5" height="22" as="alternateBounds" />
          </mxGeometry>
        </mxCell>
        <mxCell id="HDH8QybaCd2DfPCNLPIO-61" value="vulnerabilidad_id (PK)" style="shape=partialRectangle;connectable=0;fillColor=none;top=0;left=0;bottom=0;right=0;align=left;spacingLeft=2;overflow=hidden;fontSize=11;" parent="HDH8QybaCd2DfPCNLPIO-59" vertex="1">
          <mxGeometry x="45.5" width="146.5" height="22" as="geometry">
            <mxRectangle width="146.5" height="22" as="alternateBounds" />
          </mxGeometry>
        </mxCell>
        <mxCell id="HDH8QybaCd2DfPCNLPIO-62" style="shape=tableRow;horizontal=0;startSize=0;swimlaneHead=0;swimlaneBody=0;fillColor=none;collapsible=0;dropTarget=0;points=[[0,0.5],[1,0.5]];portConstraint=eastwest;top=0;left=0;right=0;bottom=0;" parent="HDH8QybaCd2DfPCNLPIO-58" vertex="1">
          <mxGeometry y="47" width="192" height="22" as="geometry" />
        </mxCell>
        <mxCell id="HDH8QybaCd2DfPCNLPIO-63" value="varchar" style="shape=partialRectangle;connectable=0;fillColor=none;top=0;left=0;bottom=0;right=0;align=left;spacingLeft=2;overflow=hidden;fontSize=11;" parent="HDH8QybaCd2DfPCNLPIO-62" vertex="1">
          <mxGeometry width="45.5" height="22" as="geometry">
            <mxRectangle width="45.5" height="22" as="alternateBounds" />
          </mxGeometry>
        </mxCell>
        <mxCell id="HDH8QybaCd2DfPCNLPIO-64" value="nombre_vulnerabilidad" style="shape=partialRectangle;connectable=0;fillColor=none;top=0;left=0;bottom=0;right=0;align=left;spacingLeft=2;overflow=hidden;fontSize=11;" parent="HDH8QybaCd2DfPCNLPIO-62" vertex="1">
          <mxGeometry x="45.5" width="146.5" height="22" as="geometry">
            <mxRectangle width="146.5" height="22" as="alternateBounds" />
          </mxGeometry>
        </mxCell>
        <mxCell id="HDH8QybaCd2DfPCNLPIO-65" style="shape=tableRow;horizontal=0;startSize=0;swimlaneHead=0;swimlaneBody=0;fillColor=none;collapsible=0;dropTarget=0;points=[[0,0.5],[1,0.5]];portConstraint=eastwest;top=0;left=0;right=0;bottom=0;" parent="HDH8QybaCd2DfPCNLPIO-58" vertex="1">
          <mxGeometry y="69" width="192" height="22" as="geometry" />
        </mxCell>
        <mxCell id="HDH8QybaCd2DfPCNLPIO-66" value="varchar" style="shape=partialRectangle;connectable=0;fillColor=none;top=0;left=0;bottom=0;right=0;align=left;spacingLeft=2;overflow=hidden;fontSize=11;" parent="HDH8QybaCd2DfPCNLPIO-65" vertex="1">
          <mxGeometry width="45.5" height="22" as="geometry">
            <mxRectangle width="45.5" height="22" as="alternateBounds" />
          </mxGeometry>
        </mxCell>
        <mxCell id="HDH8QybaCd2DfPCNLPIO-67" value="descripcion_vulnerabilidad" style="shape=partialRectangle;connectable=0;fillColor=none;top=0;left=0;bottom=0;right=0;align=left;spacingLeft=2;overflow=hidden;fontSize=11;" parent="HDH8QybaCd2DfPCNLPIO-65" vertex="1">
          <mxGeometry x="45.5" width="146.5" height="22" as="geometry">
            <mxRectangle width="146.5" height="22" as="alternateBounds" />
          </mxGeometry>
        </mxCell>
        <mxCell id="HDH8QybaCd2DfPCNLPIO-68" value="RESPUESTA_INCIDENTE" style="shape=table;startSize=25;container=1;collapsible=0;childLayout=tableLayout;fixedRows=1;rowLines=1;fontStyle=1;align=center;resizeLast=1;" parent="1" vertex="1">
          <mxGeometry x="346" y="554" width="161" height="157" as="geometry" />
        </mxCell>
        <mxCell id="HDH8QybaCd2DfPCNLPIO-69" style="shape=tableRow;horizontal=0;startSize=0;swimlaneHead=0;swimlaneBody=0;fillColor=none;collapsible=0;dropTarget=0;points=[[0,0.5],[1,0.5]];portConstraint=eastwest;top=0;left=0;right=0;bottom=0;" parent="HDH8QybaCd2DfPCNLPIO-68" vertex="1">
          <mxGeometry y="25" width="161" height="22" as="geometry" />
        </mxCell>
        <mxCell id="HDH8QybaCd2DfPCNLPIO-70" value="char" style="shape=partialRectangle;connectable=0;fillColor=none;top=0;left=0;bottom=0;right=0;align=left;spacingLeft=2;overflow=hidden;fontSize=11;" parent="HDH8QybaCd2DfPCNLPIO-69" vertex="1">
          <mxGeometry width="49" height="22" as="geometry">
            <mxRectangle width="49" height="22" as="alternateBounds" />
          </mxGeometry>
        </mxCell>
        <mxCell id="HDH8QybaCd2DfPCNLPIO-71" value="respuesta_id (PK)" style="shape=partialRectangle;connectable=0;fillColor=none;top=0;left=0;bottom=0;right=0;align=left;spacingLeft=2;overflow=hidden;fontSize=11;" parent="HDH8QybaCd2DfPCNLPIO-69" vertex="1">
          <mxGeometry x="49" width="112" height="22" as="geometry">
            <mxRectangle width="112" height="22" as="alternateBounds" />
          </mxGeometry>
        </mxCell>
        <mxCell id="IMy_ZI4oZ5yw0z7Y2BFz-1" style="shape=tableRow;horizontal=0;startSize=0;swimlaneHead=0;swimlaneBody=0;fillColor=none;collapsible=0;dropTarget=0;points=[[0,0.5],[1,0.5]];portConstraint=eastwest;top=0;left=0;right=0;bottom=0;" parent="HDH8QybaCd2DfPCNLPIO-68" vertex="1">
          <mxGeometry y="47" width="161" height="22" as="geometry" />
        </mxCell>
        <mxCell id="IMy_ZI4oZ5yw0z7Y2BFz-2" value="char" style="shape=partialRectangle;connectable=0;fillColor=none;top=0;left=0;bottom=0;right=0;align=left;spacingLeft=2;overflow=hidden;fontSize=11;" parent="IMy_ZI4oZ5yw0z7Y2BFz-1" vertex="1">
          <mxGeometry width="49" height="22" as="geometry">
            <mxRectangle width="49" height="22" as="alternateBounds" />
          </mxGeometry>
        </mxCell>
        <mxCell id="IMy_ZI4oZ5yw0z7Y2BFz-3" value="equipo_id (FK)" style="shape=partialRectangle;connectable=0;fillColor=none;top=0;left=0;bottom=0;right=0;align=left;spacingLeft=2;overflow=hidden;fontSize=11;" parent="IMy_ZI4oZ5yw0z7Y2BFz-1" vertex="1">
          <mxGeometry x="49" width="112" height="22" as="geometry">
            <mxRectangle width="112" height="22" as="alternateBounds" />
          </mxGeometry>
        </mxCell>
        <mxCell id="HDH8QybaCd2DfPCNLPIO-78" style="shape=tableRow;horizontal=0;startSize=0;swimlaneHead=0;swimlaneBody=0;fillColor=none;collapsible=0;dropTarget=0;points=[[0,0.5],[1,0.5]];portConstraint=eastwest;top=0;left=0;right=0;bottom=0;" parent="HDH8QybaCd2DfPCNLPIO-68" vertex="1">
          <mxGeometry y="69" width="161" height="22" as="geometry" />
        </mxCell>
        <mxCell id="HDH8QybaCd2DfPCNLPIO-79" value="char" style="shape=partialRectangle;connectable=0;fillColor=none;top=0;left=0;bottom=0;right=0;align=left;spacingLeft=2;overflow=hidden;fontSize=11;" parent="HDH8QybaCd2DfPCNLPIO-78" vertex="1">
          <mxGeometry width="49" height="22" as="geometry">
            <mxRectangle width="49" height="22" as="alternateBounds" />
          </mxGeometry>
        </mxCell>
        <mxCell id="HDH8QybaCd2DfPCNLPIO-80" value="incidente_id (FK)" style="shape=partialRectangle;connectable=0;fillColor=none;top=0;left=0;bottom=0;right=0;align=left;spacingLeft=2;overflow=hidden;fontSize=11;" parent="HDH8QybaCd2DfPCNLPIO-78" vertex="1">
          <mxGeometry x="49" width="112" height="22" as="geometry">
            <mxRectangle width="112" height="22" as="alternateBounds" />
          </mxGeometry>
        </mxCell>
        <mxCell id="HDH8QybaCd2DfPCNLPIO-72" style="shape=tableRow;horizontal=0;startSize=0;swimlaneHead=0;swimlaneBody=0;fillColor=none;collapsible=0;dropTarget=0;points=[[0,0.5],[1,0.5]];portConstraint=eastwest;top=0;left=0;right=0;bottom=0;" parent="HDH8QybaCd2DfPCNLPIO-68" vertex="1">
          <mxGeometry y="91" width="161" height="22" as="geometry" />
        </mxCell>
        <mxCell id="HDH8QybaCd2DfPCNLPIO-73" value="char" style="shape=partialRectangle;connectable=0;fillColor=none;top=0;left=0;bottom=0;right=0;align=left;spacingLeft=2;overflow=hidden;fontSize=11;" parent="HDH8QybaCd2DfPCNLPIO-72" vertex="1">
          <mxGeometry width="49" height="22" as="geometry">
            <mxRectangle width="49" height="22" as="alternateBounds" />
          </mxGeometry>
        </mxCell>
        <mxCell id="HDH8QybaCd2DfPCNLPIO-74" value="vulnerabilidad_id (FK)" style="shape=partialRectangle;connectable=0;fillColor=none;top=0;left=0;bottom=0;right=0;align=left;spacingLeft=2;overflow=hidden;fontSize=11;" parent="HDH8QybaCd2DfPCNLPIO-72" vertex="1">
          <mxGeometry x="49" width="112" height="22" as="geometry">
            <mxRectangle width="112" height="22" as="alternateBounds" />
          </mxGeometry>
        </mxCell>
        <mxCell id="HDH8QybaCd2DfPCNLPIO-75" style="shape=tableRow;horizontal=0;startSize=0;swimlaneHead=0;swimlaneBody=0;fillColor=none;collapsible=0;dropTarget=0;points=[[0,0.5],[1,0.5]];portConstraint=eastwest;top=0;left=0;right=0;bottom=0;" parent="HDH8QybaCd2DfPCNLPIO-68" vertex="1">
          <mxGeometry y="113" width="161" height="22" as="geometry" />
        </mxCell>
        <mxCell id="HDH8QybaCd2DfPCNLPIO-76" value="varchar" style="shape=partialRectangle;connectable=0;fillColor=none;top=0;left=0;bottom=0;right=0;align=left;spacingLeft=2;overflow=hidden;fontSize=11;" parent="HDH8QybaCd2DfPCNLPIO-75" vertex="1">
          <mxGeometry width="49" height="22" as="geometry">
            <mxRectangle width="49" height="22" as="alternateBounds" />
          </mxGeometry>
        </mxCell>
        <mxCell id="HDH8QybaCd2DfPCNLPIO-77" value="medidas_contencion" style="shape=partialRectangle;connectable=0;fillColor=none;top=0;left=0;bottom=0;right=0;align=left;spacingLeft=2;overflow=hidden;fontSize=11;" parent="HDH8QybaCd2DfPCNLPIO-75" vertex="1">
          <mxGeometry x="49" width="112" height="22" as="geometry">
            <mxRectangle width="112" height="22" as="alternateBounds" />
          </mxGeometry>
        </mxCell>
        <mxCell id="HDH8QybaCd2DfPCNLPIO-81" style="shape=tableRow;horizontal=0;startSize=0;swimlaneHead=0;swimlaneBody=0;fillColor=none;collapsible=0;dropTarget=0;points=[[0,0.5],[1,0.5]];portConstraint=eastwest;top=0;left=0;right=0;bottom=0;" parent="HDH8QybaCd2DfPCNLPIO-68" vertex="1">
          <mxGeometry y="135" width="161" height="22" as="geometry" />
        </mxCell>
        <mxCell id="HDH8QybaCd2DfPCNLPIO-82" value="varchar" style="shape=partialRectangle;connectable=0;fillColor=none;top=0;left=0;bottom=0;right=0;align=left;spacingLeft=2;overflow=hidden;fontSize=11;" parent="HDH8QybaCd2DfPCNLPIO-81" vertex="1">
          <mxGeometry width="49" height="22" as="geometry">
            <mxRectangle width="49" height="22" as="alternateBounds" />
          </mxGeometry>
        </mxCell>
        <mxCell id="HDH8QybaCd2DfPCNLPIO-83" value="nivel_erradicacion" style="shape=partialRectangle;connectable=0;fillColor=none;top=0;left=0;bottom=0;right=0;align=left;spacingLeft=2;overflow=hidden;fontSize=11;" parent="HDH8QybaCd2DfPCNLPIO-81" vertex="1">
          <mxGeometry x="49" width="112" height="22" as="geometry">
            <mxRectangle width="112" height="22" as="alternateBounds" />
          </mxGeometry>
        </mxCell>
        <mxCell id="HDH8QybaCd2DfPCNLPIO-84" value="EQUIPO_IR" style="shape=table;startSize=25;container=1;collapsible=0;childLayout=tableLayout;fixedRows=1;rowLines=1;fontStyle=1;align=center;resizeLast=1;" parent="1" vertex="1">
          <mxGeometry x="325" y="337" width="156" height="91" as="geometry" />
        </mxCell>
        <mxCell id="HDH8QybaCd2DfPCNLPIO-85" style="shape=tableRow;horizontal=0;startSize=0;swimlaneHead=0;swimlaneBody=0;fillColor=none;collapsible=0;dropTarget=0;points=[[0,0.5],[1,0.5]];portConstraint=eastwest;top=0;left=0;right=0;bottom=0;" parent="HDH8QybaCd2DfPCNLPIO-84" vertex="1">
          <mxGeometry y="25" width="156" height="22" as="geometry" />
        </mxCell>
        <mxCell id="HDH8QybaCd2DfPCNLPIO-86" value="char" style="shape=partialRectangle;connectable=0;fillColor=none;top=0;left=0;bottom=0;right=0;align=left;spacingLeft=2;overflow=hidden;fontSize=11;" parent="HDH8QybaCd2DfPCNLPIO-85" vertex="1">
          <mxGeometry width="50" height="22" as="geometry">
            <mxRectangle width="50" height="22" as="alternateBounds" />
          </mxGeometry>
        </mxCell>
        <mxCell id="HDH8QybaCd2DfPCNLPIO-87" value="equipo_id (PK)" style="shape=partialRectangle;connectable=0;fillColor=none;top=0;left=0;bottom=0;right=0;align=left;spacingLeft=2;overflow=hidden;fontSize=11;" parent="HDH8QybaCd2DfPCNLPIO-85" vertex="1">
          <mxGeometry x="50" width="106" height="22" as="geometry">
            <mxRectangle width="106" height="22" as="alternateBounds" />
          </mxGeometry>
        </mxCell>
        <mxCell id="HDH8QybaCd2DfPCNLPIO-88" style="shape=tableRow;horizontal=0;startSize=0;swimlaneHead=0;swimlaneBody=0;fillColor=none;collapsible=0;dropTarget=0;points=[[0,0.5],[1,0.5]];portConstraint=eastwest;top=0;left=0;right=0;bottom=0;" parent="HDH8QybaCd2DfPCNLPIO-84" vertex="1">
          <mxGeometry y="47" width="156" height="22" as="geometry" />
        </mxCell>
        <mxCell id="HDH8QybaCd2DfPCNLPIO-89" value="varchar" style="shape=partialRectangle;connectable=0;fillColor=none;top=0;left=0;bottom=0;right=0;align=left;spacingLeft=2;overflow=hidden;fontSize=11;" parent="HDH8QybaCd2DfPCNLPIO-88" vertex="1">
          <mxGeometry width="50" height="22" as="geometry">
            <mxRectangle width="50" height="22" as="alternateBounds" />
          </mxGeometry>
        </mxCell>
        <mxCell id="HDH8QybaCd2DfPCNLPIO-90" value="nombre_equipo" style="shape=partialRectangle;connectable=0;fillColor=none;top=0;left=0;bottom=0;right=0;align=left;spacingLeft=2;overflow=hidden;fontSize=11;" parent="HDH8QybaCd2DfPCNLPIO-88" vertex="1">
          <mxGeometry x="50" width="106" height="22" as="geometry">
            <mxRectangle width="106" height="22" as="alternateBounds" />
          </mxGeometry>
        </mxCell>
        <mxCell id="HDH8QybaCd2DfPCNLPIO-91" style="shape=tableRow;horizontal=0;startSize=0;swimlaneHead=0;swimlaneBody=0;fillColor=none;collapsible=0;dropTarget=0;points=[[0,0.5],[1,0.5]];portConstraint=eastwest;top=0;left=0;right=0;bottom=0;" parent="HDH8QybaCd2DfPCNLPIO-84" vertex="1">
          <mxGeometry y="69" width="156" height="22" as="geometry" />
        </mxCell>
        <mxCell id="HDH8QybaCd2DfPCNLPIO-92" value="varchar" style="shape=partialRectangle;connectable=0;fillColor=none;top=0;left=0;bottom=0;right=0;align=left;spacingLeft=2;overflow=hidden;fontSize=11;" parent="HDH8QybaCd2DfPCNLPIO-91" vertex="1">
          <mxGeometry width="50" height="22" as="geometry">
            <mxRectangle width="50" height="22" as="alternateBounds" />
          </mxGeometry>
        </mxCell>
        <mxCell id="HDH8QybaCd2DfPCNLPIO-93" value="descripcion_equipo" style="shape=partialRectangle;connectable=0;fillColor=none;top=0;left=0;bottom=0;right=0;align=left;spacingLeft=2;overflow=hidden;fontSize=11;" parent="HDH8QybaCd2DfPCNLPIO-91" vertex="1">
          <mxGeometry x="50" width="106" height="22" as="geometry">
            <mxRectangle width="106" height="22" as="alternateBounds" />
          </mxGeometry>
        </mxCell>
        <mxCell id="HDH8QybaCd2DfPCNLPIO-94" value="PERSONAL_IR" style="shape=table;startSize=25;container=1;collapsible=0;childLayout=tableLayout;fixedRows=1;rowLines=1;fontStyle=1;align=center;resizeLast=1;" parent="1" vertex="1">
          <mxGeometry x="585" y="337" width="161" height="133" as="geometry" />
        </mxCell>
        <mxCell id="HDH8QybaCd2DfPCNLPIO-95" style="shape=tableRow;horizontal=0;startSize=0;swimlaneHead=0;swimlaneBody=0;fillColor=none;collapsible=0;dropTarget=0;points=[[0,0.5],[1,0.5]];portConstraint=eastwest;top=0;left=0;right=0;bottom=0;" parent="HDH8QybaCd2DfPCNLPIO-94" vertex="1">
          <mxGeometry y="25" width="161" height="22" as="geometry" />
        </mxCell>
        <mxCell id="HDH8QybaCd2DfPCNLPIO-96" value="char" style="shape=partialRectangle;connectable=0;fillColor=none;top=0;left=0;bottom=0;right=0;align=left;spacingLeft=2;overflow=hidden;fontSize=11;" parent="HDH8QybaCd2DfPCNLPIO-95" vertex="1">
          <mxGeometry width="50" height="22" as="geometry">
            <mxRectangle width="50" height="22" as="alternateBounds" />
          </mxGeometry>
        </mxCell>
        <mxCell id="HDH8QybaCd2DfPCNLPIO-97" value="personal_ir_id (PK)" style="shape=partialRectangle;connectable=0;fillColor=none;top=0;left=0;bottom=0;right=0;align=left;spacingLeft=2;overflow=hidden;fontSize=11;" parent="HDH8QybaCd2DfPCNLPIO-95" vertex="1">
          <mxGeometry x="50" width="111" height="22" as="geometry">
            <mxRectangle width="111" height="22" as="alternateBounds" />
          </mxGeometry>
        </mxCell>
        <mxCell id="HDH8QybaCd2DfPCNLPIO-98" style="shape=tableRow;horizontal=0;startSize=0;swimlaneHead=0;swimlaneBody=0;fillColor=none;collapsible=0;dropTarget=0;points=[[0,0.5],[1,0.5]];portConstraint=eastwest;top=0;left=0;right=0;bottom=0;" parent="HDH8QybaCd2DfPCNLPIO-94" vertex="1">
          <mxGeometry y="47" width="161" height="22" as="geometry" />
        </mxCell>
        <mxCell id="HDH8QybaCd2DfPCNLPIO-99" value="varchar" style="shape=partialRectangle;connectable=0;fillColor=none;top=0;left=0;bottom=0;right=0;align=left;spacingLeft=2;overflow=hidden;fontSize=11;" parent="HDH8QybaCd2DfPCNLPIO-98" vertex="1">
          <mxGeometry width="50" height="22" as="geometry">
            <mxRectangle width="50" height="22" as="alternateBounds" />
          </mxGeometry>
        </mxCell>
        <mxCell id="HDH8QybaCd2DfPCNLPIO-100" value="nombre_personal_ir" style="shape=partialRectangle;connectable=0;fillColor=none;top=0;left=0;bottom=0;right=0;align=left;spacingLeft=2;overflow=hidden;fontSize=11;" parent="HDH8QybaCd2DfPCNLPIO-98" vertex="1">
          <mxGeometry x="50" width="111" height="22" as="geometry">
            <mxRectangle width="111" height="22" as="alternateBounds" />
          </mxGeometry>
        </mxCell>
        <mxCell id="HDH8QybaCd2DfPCNLPIO-101" style="shape=tableRow;horizontal=0;startSize=0;swimlaneHead=0;swimlaneBody=0;fillColor=none;collapsible=0;dropTarget=0;points=[[0,0.5],[1,0.5]];portConstraint=eastwest;top=0;left=0;right=0;bottom=0;" parent="HDH8QybaCd2DfPCNLPIO-94" vertex="1">
          <mxGeometry y="69" width="161" height="22" as="geometry" />
        </mxCell>
        <mxCell id="HDH8QybaCd2DfPCNLPIO-102" value="varchar" style="shape=partialRectangle;connectable=0;fillColor=none;top=0;left=0;bottom=0;right=0;align=left;spacingLeft=2;overflow=hidden;fontSize=11;" parent="HDH8QybaCd2DfPCNLPIO-101" vertex="1">
          <mxGeometry width="50" height="22" as="geometry">
            <mxRectangle width="50" height="22" as="alternateBounds" />
          </mxGeometry>
        </mxCell>
        <mxCell id="HDH8QybaCd2DfPCNLPIO-103" value="apellido_personal_ir" style="shape=partialRectangle;connectable=0;fillColor=none;top=0;left=0;bottom=0;right=0;align=left;spacingLeft=2;overflow=hidden;fontSize=11;" parent="HDH8QybaCd2DfPCNLPIO-101" vertex="1">
          <mxGeometry x="50" width="111" height="22" as="geometry">
            <mxRectangle width="111" height="22" as="alternateBounds" />
          </mxGeometry>
        </mxCell>
        <mxCell id="HDH8QybaCd2DfPCNLPIO-104" style="shape=tableRow;horizontal=0;startSize=0;swimlaneHead=0;swimlaneBody=0;fillColor=none;collapsible=0;dropTarget=0;points=[[0,0.5],[1,0.5]];portConstraint=eastwest;top=0;left=0;right=0;bottom=0;" parent="HDH8QybaCd2DfPCNLPIO-94" vertex="1">
          <mxGeometry y="91" width="161" height="20" as="geometry" />
        </mxCell>
        <mxCell id="HDH8QybaCd2DfPCNLPIO-105" value="varchar" style="shape=partialRectangle;connectable=0;fillColor=none;top=0;left=0;bottom=0;right=0;align=left;spacingLeft=2;overflow=hidden;fontSize=11;" parent="HDH8QybaCd2DfPCNLPIO-104" vertex="1">
          <mxGeometry width="50" height="20" as="geometry">
            <mxRectangle width="50" height="20" as="alternateBounds" />
          </mxGeometry>
        </mxCell>
        <mxCell id="HDH8QybaCd2DfPCNLPIO-106" value="rol_personal_ir" style="shape=partialRectangle;connectable=0;fillColor=none;top=0;left=0;bottom=0;right=0;align=left;spacingLeft=2;overflow=hidden;fontSize=11;" parent="HDH8QybaCd2DfPCNLPIO-104" vertex="1">
          <mxGeometry x="50" width="111" height="20" as="geometry">
            <mxRectangle width="111" height="20" as="alternateBounds" />
          </mxGeometry>
        </mxCell>
        <mxCell id="HDH8QybaCd2DfPCNLPIO-107" style="shape=tableRow;horizontal=0;startSize=0;swimlaneHead=0;swimlaneBody=0;fillColor=none;collapsible=0;dropTarget=0;points=[[0,0.5],[1,0.5]];portConstraint=eastwest;top=0;left=0;right=0;bottom=0;" parent="HDH8QybaCd2DfPCNLPIO-94" vertex="1">
          <mxGeometry y="111" width="161" height="22" as="geometry" />
        </mxCell>
        <mxCell id="HDH8QybaCd2DfPCNLPIO-108" value="char" style="shape=partialRectangle;connectable=0;fillColor=none;top=0;left=0;bottom=0;right=0;align=left;spacingLeft=2;overflow=hidden;fontSize=11;" parent="HDH8QybaCd2DfPCNLPIO-107" vertex="1">
          <mxGeometry width="50" height="22" as="geometry">
            <mxRectangle width="50" height="22" as="alternateBounds" />
          </mxGeometry>
        </mxCell>
        <mxCell id="HDH8QybaCd2DfPCNLPIO-109" value="equipo_id (FK)" style="shape=partialRectangle;connectable=0;fillColor=none;top=0;left=0;bottom=0;right=0;align=left;spacingLeft=2;overflow=hidden;fontSize=11;" parent="HDH8QybaCd2DfPCNLPIO-107" vertex="1">
          <mxGeometry x="50" width="111" height="22" as="geometry">
            <mxRectangle width="111" height="22" as="alternateBounds" />
          </mxGeometry>
        </mxCell>
        <mxCell id="HDH8QybaCd2DfPCNLPIO-110" value="VULNERABILIDAD_ACTIVO" style="shape=table;startSize=25;container=1;collapsible=0;childLayout=tableLayout;fixedRows=1;rowLines=1;fontStyle=1;align=center;resizeLast=1;" parent="1" vertex="1">
          <mxGeometry x="395" y="757" width="167" height="91" as="geometry" />
        </mxCell>
        <mxCell id="HDH8QybaCd2DfPCNLPIO-111" style="shape=tableRow;horizontal=0;startSize=0;swimlaneHead=0;swimlaneBody=0;fillColor=none;collapsible=0;dropTarget=0;points=[[0,0.5],[1,0.5]];portConstraint=eastwest;top=0;left=0;right=0;bottom=0;" parent="HDH8QybaCd2DfPCNLPIO-110" vertex="1">
          <mxGeometry y="25" width="167" height="22" as="geometry" />
        </mxCell>
        <mxCell id="HDH8QybaCd2DfPCNLPIO-112" value="char" style="shape=partialRectangle;connectable=0;fillColor=none;top=0;left=0;bottom=0;right=0;align=left;spacingLeft=2;overflow=hidden;fontSize=11;" parent="HDH8QybaCd2DfPCNLPIO-111" vertex="1">
          <mxGeometry width="50" height="22" as="geometry">
            <mxRectangle width="50" height="22" as="alternateBounds" />
          </mxGeometry>
        </mxCell>
        <mxCell id="HDH8QybaCd2DfPCNLPIO-113" value="vulnerabilidad_id (FK)" style="shape=partialRectangle;connectable=0;fillColor=none;top=0;left=0;bottom=0;right=0;align=left;spacingLeft=2;overflow=hidden;fontSize=11;" parent="HDH8QybaCd2DfPCNLPIO-111" vertex="1">
          <mxGeometry x="50" width="117" height="22" as="geometry">
            <mxRectangle width="117" height="22" as="alternateBounds" />
          </mxGeometry>
        </mxCell>
        <mxCell id="HDH8QybaCd2DfPCNLPIO-114" style="shape=tableRow;horizontal=0;startSize=0;swimlaneHead=0;swimlaneBody=0;fillColor=none;collapsible=0;dropTarget=0;points=[[0,0.5],[1,0.5]];portConstraint=eastwest;top=0;left=0;right=0;bottom=0;" parent="HDH8QybaCd2DfPCNLPIO-110" vertex="1">
          <mxGeometry y="47" width="167" height="22" as="geometry" />
        </mxCell>
        <mxCell id="HDH8QybaCd2DfPCNLPIO-115" value="char" style="shape=partialRectangle;connectable=0;fillColor=none;top=0;left=0;bottom=0;right=0;align=left;spacingLeft=2;overflow=hidden;fontSize=11;" parent="HDH8QybaCd2DfPCNLPIO-114" vertex="1">
          <mxGeometry width="50" height="22" as="geometry">
            <mxRectangle width="50" height="22" as="alternateBounds" />
          </mxGeometry>
        </mxCell>
        <mxCell id="HDH8QybaCd2DfPCNLPIO-116" value="activo_id (FK)" style="shape=partialRectangle;connectable=0;fillColor=none;top=0;left=0;bottom=0;right=0;align=left;spacingLeft=2;overflow=hidden;fontSize=11;" parent="HDH8QybaCd2DfPCNLPIO-114" vertex="1">
          <mxGeometry x="50" width="117" height="22" as="geometry">
            <mxRectangle width="117" height="22" as="alternateBounds" />
          </mxGeometry>
        </mxCell>
        <mxCell id="E8X5SIfHNgoQNyugFagX-4" style="shape=tableRow;horizontal=0;startSize=0;swimlaneHead=0;swimlaneBody=0;fillColor=none;collapsible=0;dropTarget=0;points=[[0,0.5],[1,0.5]];portConstraint=eastwest;top=0;left=0;right=0;bottom=0;" parent="HDH8QybaCd2DfPCNLPIO-110" vertex="1">
          <mxGeometry y="69" width="167" height="22" as="geometry" />
        </mxCell>
        <mxCell id="E8X5SIfHNgoQNyugFagX-5" value="varchar" style="shape=partialRectangle;connectable=0;fillColor=none;top=0;left=0;bottom=0;right=0;align=left;spacingLeft=2;overflow=hidden;fontSize=11;" parent="E8X5SIfHNgoQNyugFagX-4" vertex="1">
          <mxGeometry width="50" height="22" as="geometry">
            <mxRectangle width="50" height="22" as="alternateBounds" />
          </mxGeometry>
        </mxCell>
        <mxCell id="E8X5SIfHNgoQNyugFagX-6" value="datos_comprometidos" style="shape=partialRectangle;connectable=0;fillColor=none;top=0;left=0;bottom=0;right=0;align=left;spacingLeft=2;overflow=hidden;fontSize=11;" parent="E8X5SIfHNgoQNyugFagX-4" vertex="1">
          <mxGeometry x="50" width="117" height="22" as="geometry">
            <mxRectangle width="117" height="22" as="alternateBounds" />
          </mxGeometry>
        </mxCell>
        <mxCell id="HDH8QybaCd2DfPCNLPIO-117" value="REPORTA" style="curved=1;startArrow=ERmandOne;startSize=10;;endArrow=ERmany;endSize=10;;exitX=0.4970455569820804;exitY=1.001831543751252;entryX=0.4966201171875;entryY=0.0018315437512520032;rounded=0;edgeStyle=orthogonalEdgeStyle;" parent="1" source="HDH8QybaCd2DfPCNLPIO-1" target="HDH8QybaCd2DfPCNLPIO-20" edge="1">
          <mxGeometry relative="1" as="geometry">
            <Array as="points" />
          </mxGeometry>
        </mxCell>
        <mxCell id="HDH8QybaCd2DfPCNLPIO-118" value="AFECTA" style="startArrow=ERmany;startSize=10;;endArrow=ERmandOne;endSize=10;;entryX=0.5;entryY=0;rounded=0;entryDx=0;entryDy=0;endFill=0;startFill=0;" parent="1" target="HDH8QybaCd2DfPCNLPIO-39" edge="1">
          <mxGeometry relative="1" as="geometry">
            <mxPoint x="150" y="696" as="sourcePoint" />
          </mxGeometry>
        </mxCell>
        <mxCell id="HDH8QybaCd2DfPCNLPIO-120" value="iINCLUYE" style="startArrow=ERmany;startSize=10;;endArrow=ERmandOne;endSize=10;;entryX=0.389;entryY=-0.065;rounded=0;exitX=0.635;exitY=-0.009;exitDx=0;exitDy=0;exitPerimeter=0;curved=1;entryDx=0;entryDy=0;entryPerimeter=0;" parent="1" source="HDH8QybaCd2DfPCNLPIO-68" target="HDH8QybaCd2DfPCNLPIO-58" edge="1">
          <mxGeometry relative="1" as="geometry">
            <Array as="points">
              <mxPoint x="505" y="487" />
            </Array>
            <mxPoint x="485" y="627" as="sourcePoint" />
          </mxGeometry>
        </mxCell>
        <mxCell id="HDH8QybaCd2DfPCNLPIO-121" value="COMPROMETE" style="startArrow=ERmany;startSize=10;;endArrow=ERmandOne;endSize=10;;exitX=0.995;exitY=-0.174;entryX=0.5;entryY=1;rounded=0;entryDx=0;entryDy=0;exitDx=0;exitDy=0;exitPerimeter=0;curved=1;" parent="1" source="HDH8QybaCd2DfPCNLPIO-114" target="HDH8QybaCd2DfPCNLPIO-58" edge="1">
          <mxGeometry relative="1" as="geometry">
            <Array as="points">
              <mxPoint x="655" y="767" />
            </Array>
          </mxGeometry>
        </mxCell>
        <mxCell id="HDH8QybaCd2DfPCNLPIO-122" value="COMPROMETE" style="startArrow=ERmany;startSize=10;;endArrow=ERmandOne;endSize=10;;entryX=1;entryY=0.5;rounded=0;entryDx=0;entryDy=0;" parent="1" target="HDH8QybaCd2DfPCNLPIO-43" edge="1">
          <mxGeometry relative="1" as="geometry">
            <mxPoint x="395" y="817" as="sourcePoint" />
          </mxGeometry>
        </mxCell>
        <mxCell id="HDH8QybaCd2DfPCNLPIO-123" value="CONFORMA" style="startArrow=ERmandOne;startSize=10;;endArrow=ERmany;endSize=10;;exitX=0.5;exitY=0;entryX=0.5010620970163286;entryY=0.002132244964144123;rounded=0;exitDx=0;exitDy=0;curved=1;" parent="1" source="HDH8QybaCd2DfPCNLPIO-84" target="HDH8QybaCd2DfPCNLPIO-94" edge="1">
          <mxGeometry x="-0.1199" y="-18" relative="1" as="geometry">
            <Array as="points">
              <mxPoint x="525" y="277" />
            </Array>
            <mxPoint as="offset" />
          </mxGeometry>
        </mxCell>
        <mxCell id="WKR8_jyyZjOEQ8NFrnY9-1" value="RESPONDE" style="startArrow=ERmandOne;startSize=10;;endArrow=ERmany;endSize=10;;exitX=0.424;exitY=1.124;entryX=0.169;entryY=0.004;rounded=0;exitDx=0;exitDy=0;exitPerimeter=0;curved=1;entryDx=0;entryDy=0;entryPerimeter=0;" parent="1" source="HDH8QybaCd2DfPCNLPIO-91" target="HDH8QybaCd2DfPCNLPIO-68" edge="1">
          <mxGeometry relative="1" as="geometry">
            <Array as="points">
              <mxPoint x="335" y="487" />
            </Array>
            <mxPoint x="393" y="358" as="sourcePoint" />
            <mxPoint x="666" y="367" as="targetPoint" />
          </mxGeometry>
        </mxCell>
        <mxCell id="_ti422HNz6u8IgyxazDZ-1" value="TIENE" style="startArrow=ERmany;startSize=10;;endArrow=ERmandOne;endSize=10;;exitX=-0.021;exitY=0.318;entryX=1;entryY=0.5;rounded=0;entryDx=0;entryDy=0;exitDx=0;exitDy=0;exitPerimeter=0;" parent="1" source="HDH8QybaCd2DfPCNLPIO-78" target="HDH8QybaCd2DfPCNLPIO-27" edge="1">
          <mxGeometry relative="1" as="geometry">
            <mxPoint x="365" y="613.5" as="sourcePoint" />
            <mxPoint x="229" y="629.5" as="targetPoint" />
          </mxGeometry>
        </mxCell>
      </root>
    </mxGraphModel>
  </diagram>
  <diagram id="LuQD65ePzGl7kTRtqmm8" name="Esquema">
    <mxGraphModel dx="998" dy="672" grid="1" gridSize="10" guides="1" tooltips="1" connect="1" arrows="1" fold="1" page="1" pageScale="1" pageWidth="827" pageHeight="1169" math="0" shadow="0">
      <root>
        <mxCell id="0" />
        <mxCell id="1" parent="0" />
        <mxCell id="lqbde5mOuyxIETmXwZi_-2" value="USUARIO (#USUARIO_ID, nombre_usuario, apellido_usuario, email_usuario, rol_usuario, telefono)" style="text;whiteSpace=wrap;" parent="1" vertex="1">
          <mxGeometry x="10" y="240" width="560" height="50" as="geometry" />
        </mxCell>
        <mxCell id="lqbde5mOuyxIETmXwZi_-5" value="INCIDENTE (#INCIDENTE_ID, #ACTIVO_ID, #USUARIO_ID, descripcion, fecha, gravedad, estado)" style="text;whiteSpace=wrap;" parent="1" vertex="1">
          <mxGeometry x="10" y="290" width="560" height="50" as="geometry" />
        </mxCell>
        <mxCell id="lqbde5mOuyxIETmXwZi_-6" value="ACTIVO (#ACTIVO_ID, nombre_activo, tipo_activo, direccion_ip, direccion_mac)" style="text;whiteSpace=wrap;" parent="1" vertex="1">
          <mxGeometry x="10" y="340" width="460" height="40" as="geometry" />
        </mxCell>
        <mxCell id="lqbde5mOuyxIETmXwZi_-7" value="EQUIPO_IR (#EQUIPO_ID, nombre_equipo, descripcion_equipo)" style="text;whiteSpace=wrap;" parent="1" vertex="1">
          <mxGeometry x="10" y="400" width="380" height="40" as="geometry" />
        </mxCell>
        <mxCell id="lqbde5mOuyxIETmXwZi_-8" value="PERSONAL_IR (#PERSONAL_IR_ID, nombre_personal_ir, apellido_personal_ir, rol_personal_ir, #EQUIPO_ID)" style="text;whiteSpace=wrap;" parent="1" vertex="1">
          <mxGeometry x="10" y="460" width="610" height="50" as="geometry" />
        </mxCell>
        <mxCell id="lqbde5mOuyxIETmXwZi_-9" value="RESPUESTA_INCIDENTE (#RESPUESTA_ID, #EQUIPO_ID, #INCIDENTE_ID, #VULNERABILIDAD_ID, medidas_contencion, nivel_erradicacion)" style="text;whiteSpace=wrap;" parent="1" vertex="1">
          <mxGeometry x="10" y="510" width="790" height="50" as="geometry" />
        </mxCell>
        <mxCell id="lqbde5mOuyxIETmXwZi_-11" value="VULNERABILIDAD (#VULNERABILIDAD_ID, nombre_vulnerabilidad, descripcion_vulnerabilidad)&#xa;&#xa;&#xa;VULNERABILIDAD_ACTIVO (#VULNERABILIDAD_ID, #ACTIVO_ID, datos_comprometidos)" style="text;whiteSpace=wrap;" parent="1" vertex="1">
          <mxGeometry x="10" y="550" width="770" height="80" as="geometry" />
        </mxCell>
      </root>
    </mxGraphModel>
  </diagram>
</mxfile>
